<svg version="1.1" id="Layer_1" xmlns="http://www.w3.org/2000/svg" xmlns:xlink="http://www.w3.org/1999/xlink" x="0px" y="0px"
	 width="100%" viewBox="0 0 1024 1024" enable-background="new 0 0 1024 1024" xml:space="preserve">
<path fill="#000000" opacity="1.000000" stroke="none" 
	d="
M492.000000,1025.000000 
	C328.000000,1025.000000 164.500000,1025.000000 1.000000,1025.000000 
	C1.000000,683.666687 1.000000,342.333344 1.000000,1.000000 
	C342.333344,1.000000 683.666687,1.000000 1025.000000,1.000000 
	C1025.000000,342.333344 1025.000000,683.666687 1025.000000,1025.000000 
	C847.500000,1025.000000 670.000000,1025.000000 492.000000,1025.000000 
M166.752991,486.011383 
	C164.846649,486.503510 162.940323,486.995636 160.541489,487.614899 
	C162.862488,488.451752 164.819672,489.154724 166.774765,489.863464 
	C167.853088,490.254425 168.927933,490.654999 169.435974,491.421173 
	C167.584686,493.140381 165.733383,494.859589 163.724350,496.725311 
	C169.564041,504.511322 177.300522,508.414642 186.707245,511.146545 
	C202.205795,516.071411 218.205261,518.025391 234.345505,518.968567 
	C259.301025,520.426819 284.268402,521.825439 307.619781,532.048828 
	C311.607452,533.794678 313.691467,532.669739 314.660706,528.966431 
	C317.054077,519.821777 319.904449,510.725311 321.357300,501.419952 
	C325.031036,477.889862 324.979370,454.348358 319.460419,430.278168 
	C317.663910,424.509674 315.867432,418.741150 314.037476,412.284515 
	C313.863251,411.862915 313.689026,411.441315 313.580505,410.368378 
	C312.750519,408.849792 311.920563,407.331177 311.067993,405.102692 
	C309.385986,402.065796 307.704010,399.028870 305.941742,395.284882 
	C304.352814,393.007111 302.763916,390.729340 301.234894,388.537445 
	C301.932983,387.309753 302.567017,386.194763 303.781647,384.745911 
	C304.715240,383.222412 305.648834,381.698914 307.027924,379.685760 
	C308.134491,376.802490 309.241058,373.919250 310.782776,370.404724 
	C310.812439,368.921844 310.842133,367.438995 311.481323,365.655609 
	C311.515350,364.764008 311.549377,363.872437 311.803650,362.260742 
	C311.686096,360.785828 311.568573,359.310913 311.543671,357.022919 
	C310.233551,351.113434 308.657410,345.381409 301.997803,342.238098 
	C301.084106,341.570770 300.170380,340.903412 298.868958,339.771606 
	C297.577728,339.217102 296.286469,338.662598 294.418213,337.658966 
	C292.282196,337.194153 290.146149,336.729370 287.136932,336.012817 
	C285.484009,336.030670 283.829010,336.001038 282.178528,336.073853 
	C267.756195,336.710236 254.808563,351.726593 254.746140,363.552338 
	C254.493011,364.309845 254.239883,365.067352 253.122192,365.814484 
	C250.406326,366.187103 247.690445,366.559692 244.169922,366.776459 
	C241.090424,367.458771 238.010910,368.141083 234.103668,368.770660 
	C221.261307,371.296112 209.025833,375.235168 198.131973,384.066681 
	C195.840744,386.124359 193.549515,388.182037 190.875412,390.428009 
	C186.586349,397.238342 182.106567,403.939301 178.105621,410.914886 
	C176.585403,413.565399 175.093933,415.239838 171.968460,415.908020 
	C160.021851,418.462036 148.122467,421.243286 136.232773,424.055145 
	C126.561409,426.342377 122.211594,433.083557 124.899071,442.640198 
	C126.120979,446.985291 128.890228,450.895264 130.944336,455.746582 
	C131.612579,457.082794 132.407059,458.371552 132.929764,459.762451 
	C138.853836,475.526794 149.545319,484.909119 166.752991,486.011383 
M554.177002,487.978088 
	C552.236389,487.745972 550.295776,487.513824 547.920593,486.720245 
	C546.602173,483.509003 543.915405,483.645233 541.188904,484.033813 
	C531.315369,485.441040 521.429443,486.775146 511.584564,488.362518 
	C506.445099,489.191223 504.679565,491.581390 505.008118,497.119720 
	C506.052216,514.720398 507.309967,532.308350 508.344788,549.909485 
	C509.008606,561.200134 509.388763,572.507202 509.966705,583.803345 
	C510.282806,589.981567 512.093384,592.281128 516.956848,593.052124 
	C524.848083,594.303040 528.771118,591.085510 528.490784,583.051636 
	C528.212463,575.074585 527.368164,567.118958 526.955688,559.144470 
	C526.487671,550.097656 526.647339,549.513062 535.468506,549.242188 
	C545.806396,548.924805 548.635376,545.034912 546.455261,532.584656 
	C545.784241,528.752380 543.261108,526.986633 539.213013,527.472351 
	C536.245422,527.828491 533.238831,527.845520 530.256531,528.096191 
	C526.773682,528.389038 525.045105,526.487183 524.225525,523.419373 
	C521.111145,511.761810 523.539734,508.262695 535.414612,507.288544 
	C536.740295,507.179810 538.078613,507.045898 539.401367,507.113007 
	C544.075256,507.350220 547.480225,505.678345 549.695496,500.927582 
	C551.403320,500.288696 553.111145,499.649811 555.020630,499.927551 
	C555.635925,528.567749 556.210388,557.208923 556.896118,585.847412 
	C557.061768,592.766602 559.728333,595.247192 566.362488,595.294922 
	C573.741577,595.348022 575.910950,593.370422 576.427246,586.071716 
	C576.509338,584.911499 576.520264,583.741577 576.486023,582.578430 
	C575.577881,551.780945 574.663208,520.983643 573.739624,490.186615 
	C573.548950,483.828644 571.796082,481.708466 566.247925,481.022095 
	C560.254028,480.280609 556.555481,482.549927 554.177002,487.978088 
M336.127167,480.347168 
	C336.416107,482.491211 336.657135,484.643036 337.003052,486.777832 
	C338.016205,493.030975 341.608765,496.696320 348.040222,496.922424 
	C365.263611,497.527985 382.356384,496.355530 398.706848,490.389954 
	C423.682037,481.277618 433.290314,444.420441 415.845306,424.268280 
	C411.804260,419.600128 406.490387,416.033813 401.542480,411.771210 
	C401.643555,411.636658 402.070648,410.941284 402.617706,410.358490 
	C412.023315,400.338379 415.364868,388.222290 413.956573,374.908264 
	C411.912537,355.584229 401.715607,340.306915 377.375488,342.980225 
	C363.042023,344.554535 349.368988,348.517792 336.204254,354.301880 
	C323.067169,360.073761 321.710999,363.275787 323.534576,377.398315 
	C327.923706,411.389282 331.919098,445.431091 336.127167,480.347168 
M345.658905,681.141968 
	C374.126984,665.857727 400.319550,647.629333 421.472839,622.820557 
	C426.778290,616.598206 426.900391,616.429626 421.641113,610.459900 
	C420.100800,608.711548 418.643951,606.850281 416.895447,605.332825 
	C413.301453,602.213562 409.987488,597.848816 405.766479,596.528992 
	C383.106293,589.443726 360.632782,582.085144 340.064880,569.324646 
	C335.995331,578.227051 332.560669,587.440002 327.724121,595.846436 
	C322.814484,604.379883 316.521301,612.117249 310.710724,620.378601 
	C307.329193,617.655457 305.115143,615.669800 302.702942,613.964478 
	C291.343262,605.933228 279.295319,602.187500 265.721222,608.238159 
	C254.325073,613.317993 251.450943,623.149414 258.431641,633.388428 
	C259.087677,634.350647 259.734192,635.323792 260.454224,636.237427 
	C274.377716,653.905212 291.935699,667.555603 309.395111,681.455139 
	C319.625153,689.599365 329.143799,691.384827 340.055511,683.859802 
	C341.542816,682.834045 343.330261,682.243591 345.658905,681.141968 
M658.033813,462.874939 
	C661.486877,463.256927 664.940796,463.964111 668.392822,463.955261 
	C676.325623,463.934875 681.611328,458.876282 680.786987,451.053223 
	C680.267273,446.121979 678.221680,441.153442 675.976196,436.641785 
	C670.646851,425.933838 664.791992,415.487427 659.147583,404.936310 
	C657.380859,401.633698 657.132935,398.515839 660.592407,396.146545 
	C674.310608,386.751282 679.518250,373.035858 680.352051,357.160919 
	C681.663940,332.182770 670.799927,311.648743 641.522156,309.819855 
	C628.173279,308.985992 614.643250,310.591217 601.227112,311.539490 
	C596.348083,311.884369 591.478699,313.711548 590.305359,319.410797 
	C589.714172,322.282043 590.019165,325.390137 590.237915,328.367706 
	C592.484131,358.938995 594.801331,389.505066 597.086670,420.073456 
	C598.005859,432.367157 598.666016,444.687561 599.974731,456.939087 
	C600.267395,459.678131 602.141846,463.327484 604.392822,464.593964 
	C614.979126,470.550018 628.776978,462.333405 628.737305,450.335022 
	C628.710327,442.174408 628.118042,434.016937 627.969543,425.854553 
	C627.928955,423.624329 628.578247,421.381500 628.910889,419.144470 
	C629.524109,419.068085 630.137390,418.991669 630.750610,418.915283 
	C635.557434,427.007446 640.291565,435.143982 645.193909,443.177826 
	C649.151794,449.663910 653.312561,456.026184 658.033813,462.874939 
M547.589905,625.647827 
	C547.360535,620.156006 547.044373,614.665894 546.931091,609.171692 
	C546.850647,605.266113 545.208618,603.812378 541.166199,603.714722 
	C506.534454,602.878296 471.907776,601.834167 437.278595,600.887207 
	C435.584045,600.840820 433.880524,601.121643 431.153015,601.327820 
	C445.542236,622.864197 459.300079,643.547485 466.298187,667.581787 
	C465.653992,668.094788 465.423889,668.424622 465.142883,668.475952 
	C464.004944,668.683960 462.850677,668.801270 461.703674,668.961121 
	C451.066772,670.443420 441.186218,673.732483 434.066956,682.264282 
	C429.629333,687.582458 427.015381,693.973755 430.117249,700.762939 
	C432.804565,706.644653 438.979950,706.843872 444.422272,706.826111 
	C468.069305,706.748962 491.720001,706.581055 515.360229,706.044312 
	C532.146057,705.663269 539.162842,700.586609 541.760925,684.116211 
	C544.758972,665.109985 545.737976,645.785217 547.589905,625.647827 
M727.180969,641.321167 
	C740.978882,650.655945 754.776855,659.990723 768.087708,668.996033 
	C763.541931,671.070251 757.804382,673.260376 752.492981,676.216309 
	C745.244446,680.250305 741.472229,686.588257 741.905457,695.140991 
	C742.136292,699.699646 744.314575,702.812622 748.715393,703.849854 
	C753.554199,704.990417 758.472839,706.150085 763.408691,706.452148 
	C776.869202,707.275940 790.685242,708.634155 803.474182,703.707458 
	C820.557739,697.126282 836.395569,687.896240 850.989075,676.708557 
	C857.177612,671.964172 859.137695,665.544983 857.839600,658.094666 
	C857.273560,654.845825 856.248718,651.658142 855.220825,648.511780 
	C849.835266,632.026123 839.190186,618.387207 830.818176,603.514893 
	C829.289917,600.800049 827.462891,601.561646 825.362732,602.369507 
	C792.678711,614.941406 758.768311,621.809998 723.889954,624.196411 
	C721.576904,624.354675 719.246582,624.653015 716.992065,625.177429 
	C713.853271,625.907532 713.142944,627.661926 715.559631,630.072144 
	C719.209595,633.712280 722.935791,637.275879 727.180969,641.321167 
M510.722900,402.091980 
	C509.896240,423.890930 508.864197,445.684967 508.341034,467.491180 
	C508.122742,476.588776 511.441254,479.020264 520.495056,477.896790 
	C522.142456,477.692352 523.781372,477.351105 525.394775,476.953461 
	C532.322266,475.246094 535.113708,472.026886 535.909363,464.923309 
	C536.243042,461.944000 536.585144,458.965607 536.911377,455.985535 
	C538.650635,440.099243 537.170715,442.081604 553.073425,438.737366 
	C557.389221,437.829742 559.495850,439.379333 560.603638,442.961700 
	C562.517456,449.150299 563.850647,455.533936 566.044678,461.612946 
	C566.963745,464.159180 569.061096,467.428711 571.314514,468.122437 
	C577.306213,469.967041 583.774292,469.733948 588.878845,465.547028 
	C593.448853,461.798584 593.553711,456.318420 592.474976,450.806366 
	C588.256775,429.251770 584.682861,407.549286 579.716980,386.169464 
	C575.477478,367.916901 569.907471,349.955322 564.434631,332.014923 
	C561.722961,323.125916 557.012756,320.661316 548.103760,322.195343 
	C543.026367,323.069580 538.066895,324.662140 532.978943,325.434845 
	C522.454224,327.033295 518.222778,333.776672 517.161316,343.567108 
	C515.079224,362.772430 512.883362,381.965454 510.722900,402.091980 
M449.466980,335.993591 
	C445.166290,336.477020 440.840149,336.799683 436.569763,337.474731 
	C424.816345,339.332642 422.280182,342.193176 423.254150,354.014679 
	C426.658142,395.330536 430.253326,436.630890 433.874329,477.928497 
	C434.560364,485.752808 437.748199,488.383728 445.421539,487.404236 
	C460.772491,485.444733 476.092072,483.237305 491.417542,481.081970 
	C496.629456,480.348999 500.226776,477.160706 500.896149,472.171783 
	C501.682953,466.307495 501.794006,460.232269 501.230743,454.341003 
	C500.668854,448.464142 497.517822,446.253540 491.681335,446.591248 
	C486.702240,446.879364 481.709717,447.359192 476.789459,448.161102 
	C461.199493,450.702026 458.794464,449.316895 459.885345,431.034210 
	C460.116608,427.158691 462.147186,424.903168 465.999329,424.360229 
	C469.623749,423.849365 473.248169,423.325958 476.884857,422.916687 
	C490.934143,421.335449 494.407990,417.217773 493.460846,403.128510 
	C493.349213,401.467987 493.238220,399.795502 492.944794,398.161285 
	C491.997711,392.886566 488.694794,389.938385 483.301483,389.966278 
	C479.319092,389.986847 475.330078,390.416138 471.360016,390.820465 
	C456.890076,392.294159 454.241455,389.547333 456.072479,375.000610 
	C456.498260,371.617645 458.082977,369.357605 461.506958,368.808289 
	C467.579926,367.833984 473.650360,366.708038 479.768005,366.174683 
	C495.356628,364.815613 498.218811,361.874939 498.157898,346.386932 
	C498.153992,345.387848 498.146698,344.387329 498.091827,343.390137 
	C497.696777,336.211212 494.414856,333.184937 487.261627,333.609070 
	C474.965240,334.338165 462.674347,335.159790 449.466980,335.993591 
M652.379150,703.448181 
	C655.373413,703.353149 658.372742,703.337708 661.360779,703.145935 
	C667.056396,702.780334 671.046692,699.949707 673.083923,694.579041 
	C681.401611,672.651917 690.798645,651.233704 702.560913,630.893677 
	C704.980591,626.709290 704.044495,625.358276 699.188721,624.932617 
	C698.029724,624.831055 696.859253,624.864868 695.694458,624.824829 
	C664.380005,623.747986 633.225647,621.346130 602.675537,613.792236 
	C597.118347,612.418213 595.592407,613.736755 596.267212,619.492188 
	C598.103333,635.153015 600.094055,650.795654 602.061890,666.756470 
	C600.285217,667.067688 597.685608,667.453735 595.116028,667.985229 
	C584.861938,670.106201 575.363647,673.972900 570.518311,683.879150 
	C564.979126,695.204163 566.828857,704.293579 582.474304,703.989929 
	C605.447266,703.544128 628.430176,703.605774 652.379150,703.448181 
M766.762268,477.919067 
	C769.464844,478.729645 772.124512,479.751190 774.878052,480.311249 
	C783.128601,481.989288 785.544373,480.286530 787.313721,471.855499 
	C787.586548,470.555573 787.801575,469.240875 787.981873,467.924591 
	C789.314697,458.193756 790.704529,448.469940 791.935913,438.726166 
	C793.534912,426.073792 804.670410,421.012085 811.373108,411.987823 
	C822.216858,427.373383 827.895325,443.611542 832.283142,460.225220 
	C839.441101,459.832336 843.594177,457.781982 847.330017,451.318542 
	C854.978577,438.085815 856.362793,424.020935 849.179749,410.334320 
	C842.011780,396.676422 829.248291,391.400177 814.408691,390.667023 
	C810.806702,390.489014 808.256165,389.759583 806.561646,386.055145 
	C805.367920,383.445251 802.976379,381.256012 800.770935,379.265320 
	C797.258301,376.094727 795.235962,376.486481 792.833984,380.565369 
	C791.149231,383.426086 789.969482,386.609711 788.093201,389.323425 
	C786.779541,391.223358 784.816833,393.529999 782.864929,393.828186 
	C781.594055,394.022339 779.196716,391.200684 778.386292,389.274750 
	C775.363831,382.091278 772.227844,374.873718 770.170593,367.384338 
	C766.712524,354.795349 758.875244,346.594879 747.060974,341.838776 
	C743.871399,340.554779 740.662842,337.316681 737.039001,340.652771 
	C733.560852,343.854675 736.338257,347.471008 736.828247,350.911957 
	C736.850769,351.070099 736.971313,351.211975 737.029175,351.367737 
	C744.676208,371.936798 752.329285,392.503601 759.963013,413.077606 
	C762.644348,420.304047 764.357605,427.543976 763.349670,435.484985 
	C762.009094,446.047394 761.660767,456.732239 760.672607,467.344574 
	C760.230408,472.093384 761.921814,475.407288 766.762268,477.919067 
M706.914185,476.703094 
	C705.095093,476.507111 703.280457,476.219482 701.456116,476.130188 
	C690.469116,475.592560 688.261780,477.779358 687.927734,488.651154 
	C687.314331,508.613617 686.606873,528.573914 685.801819,548.529602 
	C685.057129,566.990356 684.090149,585.442017 683.309998,603.901489 
	C682.990295,611.464172 684.763245,613.408081 692.390869,613.759033 
	C697.707703,614.003662 703.042297,613.872742 708.369019,613.891174 
	C718.898987,613.927551 726.567383,608.945862 729.973938,599.255859 
	C736.795288,579.853027 738.758789,560.357544 727.816833,541.442810 
	C727.192017,540.362854 727.124390,538.091309 727.834778,537.239746 
	C737.139465,526.086792 737.715576,512.783386 736.839600,499.396210 
	C736.029053,487.010712 730.042786,480.557159 718.686462,478.276947 
	C715.108887,477.558594 711.441650,477.286987 706.914185,476.703094 
M689.891235,352.371185 
	C689.277161,369.851990 688.570862,387.330200 688.076843,404.814392 
	C687.644043,420.132599 687.282288,435.456757 687.214233,450.779724 
	C687.174744,459.668549 691.610352,464.899048 699.365112,465.835663 
	C712.915039,467.472168 726.476807,469.013184 740.041809,470.520813 
	C744.802063,471.049866 748.540222,469.073151 749.546204,464.382843 
	C750.613037,459.408722 751.052368,454.212555 751.026855,449.117065 
	C751.003235,444.398315 748.480042,440.942932 743.498901,439.879883 
	C737.002686,438.493500 730.481628,437.213806 724.015991,435.697388 
	C718.162109,434.324463 716.516968,432.256561 716.804626,426.196106 
	C717.207336,417.712616 717.987122,409.247772 718.504822,400.768799 
	C719.742981,380.488892 720.920654,360.205261 722.126526,339.923340 
	C722.436707,334.705200 720.806763,329.836853 716.328308,327.448364 
	C710.991333,324.601929 705.066895,322.484253 699.147522,321.206757 
	C693.183411,319.919617 690.766602,322.341919 690.499146,328.415619 
	C690.162048,336.070679 690.095032,343.737610 689.891235,352.371185 
M659.946777,593.523804 
	C659.952026,597.020020 659.662476,600.551697 660.077637,603.998535 
	C660.312073,605.945496 661.196594,608.499695 662.661987,609.498352 
	C670.417236,614.783447 678.175293,610.869202 678.686462,601.675659 
	C678.778809,600.014221 678.857239,598.343628 678.793030,596.683044 
	C677.822632,571.575500 677.077209,546.455627 675.733643,521.367737 
	C675.049316,508.589569 673.472717,495.844696 671.841431,483.143585 
	C671.503540,480.513184 669.755981,477.026794 667.605774,475.837708 
	C655.366089,469.068695 643.398071,475.096039 641.061157,488.788605 
	C636.417236,515.997864 631.712524,543.197266 627.217041,570.431152 
	C625.702209,579.607910 624.400024,588.849182 623.661499,598.113647 
	C623.214905,603.715515 626.997742,606.697144 633.324585,607.052917 
	C638.808228,607.361267 640.780090,605.700867 641.783325,599.664246 
	C642.927612,592.778259 644.005798,585.880371 645.019958,578.974060 
	C645.586304,575.117554 647.409912,572.789734 651.580139,573.148315 
	C655.615356,573.495239 659.254211,574.380066 659.391785,579.582581 
	C659.506165,583.905273 659.759705,588.224304 659.946777,593.523804 
M470.838379,591.953247 
	C484.621582,594.608948 492.894684,590.164062 497.894226,577.110962 
	C503.786316,561.727356 503.411285,545.781372 501.571869,529.788879 
	C500.522980,520.669800 498.836334,511.667847 493.884613,503.672150 
	C486.575165,491.869324 473.261108,488.975677 462.009216,496.949402 
	C455.362793,501.659424 452.497375,508.752808 451.008362,516.444641 
	C447.494080,534.598450 448.885376,552.617188 453.145447,570.439270 
	C455.438049,580.030273 460.202576,588.019714 470.838379,591.953247 
M817.277954,497.305542 
	C812.248718,496.165527 807.233215,494.960480 802.187439,493.899078 
	C791.703796,491.693756 788.927979,493.857941 788.163818,504.538727 
	C786.916138,521.979675 785.458069,539.407349 784.394470,556.859314 
	C783.574097,570.320618 783.076538,583.806702 782.726196,597.289307 
	C782.559082,603.722595 785.091980,605.553894 791.054382,603.799744 
	C800.132141,601.128845 809.198486,598.405029 818.190979,595.463135 
	C825.305115,593.135742 826.678772,591.061035 827.061951,583.467163 
	C827.162537,581.472046 827.140076,579.470581 827.166809,577.471924 
	C827.221069,573.412476 825.439941,571.673462 821.259766,572.508972 
	C816.542236,573.451965 811.794617,574.267517 807.035217,574.969910 
	C803.723938,575.458618 802.099304,573.697815 801.814697,570.476013 
	C800.816895,559.181702 803.278381,556.413513 814.486450,556.223389 
	C816.149719,556.195190 818.177551,556.627136 819.394714,555.845947 
	C821.698425,554.367371 824.389648,552.508667 825.338318,550.167114 
	C826.379761,547.596313 825.840576,544.287537 825.617432,541.328369 
	C825.373352,538.091736 823.379700,536.295349 820.090454,535.978821 
	C816.442932,535.627625 812.795898,535.260925 809.157776,534.825195 
	C805.881836,534.432983 803.987793,532.676270 804.111328,529.216003 
	C804.182495,527.225586 804.392456,525.240417 804.511780,523.251221 
	C804.738403,519.473694 806.629517,517.891174 810.425232,518.583435 
	C815.334778,519.478943 820.263916,520.266357 825.177063,521.142944 
	C829.204834,521.861633 831.159485,519.587036 831.882629,516.161804 
	C834.484253,503.838593 832.652405,501.023987 820.487976,498.095276 
	C819.679626,497.900665 818.855957,497.769409 817.277954,497.305542 
M443.138702,590.943176 
	C449.539948,589.711182 451.667725,585.348022 448.307312,579.212646 
	C445.121399,573.395813 441.371674,567.885803 437.826416,562.268311 
	C432.441101,553.735291 432.458557,553.379944 438.040039,545.265625 
	C439.163544,543.632324 440.253082,541.884338 440.899323,540.029358 
	C444.289520,530.297363 444.056458,520.395996 441.530457,510.561859 
	C439.732910,503.563721 434.954254,499.045898 427.723267,498.930450 
	C418.800873,498.787994 409.808929,499.326416 400.943573,500.381683 
	C392.977783,501.329895 391.657074,503.193542 392.237427,511.328613 
	C393.811676,533.396301 395.587830,555.450684 397.467133,577.494690 
	C398.030212,584.099670 405.166840,588.888489 411.981201,587.715576 
	C415.372131,587.132019 416.523071,583.162659 415.562408,576.040283 
	C415.096100,572.582764 414.799866,569.092896 414.639374,565.607849 
	C414.570374,564.108887 415.041779,562.585083 415.267639,561.072571 
	C415.721436,560.953125 416.175232,560.833740 416.628998,560.714294 
	C417.587738,562.099243 418.656311,563.421692 419.486328,564.879883 
	C423.184509,571.377075 426.839050,577.899414 430.460693,584.439697 
	C433.052246,589.119690 436.849792,591.529175 443.138702,590.943176 
M622.466370,475.507874 
	C612.846741,476.323090 603.230469,477.180847 593.606689,477.943756 
	C578.455994,479.144806 578.453918,479.117798 579.185059,493.967529 
	C579.620361,502.806854 580.727661,503.775055 589.520386,503.003815 
	C595.029053,502.520630 596.182190,503.301239 596.328369,508.757782 
	C596.542480,516.750427 596.456177,524.752625 596.418457,532.750366 
	C596.325867,552.414673 596.091797,572.078918 596.117554,591.742920 
	C596.127319,599.153320 600.073486,602.646179 607.408813,602.474915 
	C612.685791,602.351685 615.160950,599.040894 615.271484,591.945618 
	C615.287048,590.945984 615.269897,589.945862 615.269348,588.945923 
	C615.253906,561.781738 615.284119,534.617371 615.176208,507.453522 
	C615.159302,503.210510 616.391968,500.422241 621.068115,500.979675 
	C629.484619,501.983032 632.460938,500.890533 632.845154,489.087128 
	C632.888489,487.755127 632.880859,486.420868 632.870972,485.087860 
	C632.809753,476.844299 631.603821,475.628082 622.466370,475.507874 
M760.356750,487.042633 
	C750.560242,482.431030 746.502258,484.402100 745.692627,494.691132 
	C744.699829,507.308411 744.109497,519.957886 743.392212,532.596191 
	C742.051880,556.213928 740.684753,579.830444 739.462402,603.454407 
	C739.098633,610.483765 740.742249,611.959717 747.517761,611.098083 
	C754.453613,610.216125 761.379333,609.207153 768.268188,608.015381 
	C774.733398,606.896912 777.046326,604.256470 777.850891,597.724060 
	C778.054443,596.071655 778.177429,594.408203 778.298340,592.747009 
	C779.081543,581.982605 778.365540,581.324585 767.604187,582.870239 
	C759.743835,583.999146 758.703247,583.082336 759.123291,575.361267 
	C759.195679,574.030945 759.347839,572.705139 759.432312,571.375244 
	C761.058044,545.778076 762.774902,520.185669 764.140320,494.574554 
	C764.264954,492.236908 762.131836,489.778870 760.356750,487.042633 
M338.112274,521.421204 
	C339.038788,530.857056 340.712799,540.295776 340.677338,549.728027 
	C340.643250,558.792725 344.507019,563.959961 352.468201,567.181396 
	C357.670013,569.286377 360.018555,567.793274 359.636536,562.080078 
	C359.442444,559.177124 359.263336,556.273193 359.045654,552.872681 
	C362.644836,553.145386 365.438873,553.361694 368.233643,553.568115 
	C379.712646,554.416016 386.473907,549.346436 387.767975,537.889587 
	C388.372620,532.536377 388.032288,526.862244 386.941223,521.576965 
	C384.780487,511.109955 378.096344,505.671844 367.346832,505.028961 
	C360.880035,504.642212 354.372375,504.713623 347.889923,504.867554 
	C338.817993,505.082886 337.349579,506.832031 337.825745,516.009766 
	C337.903320,517.505371 337.984589,519.000854 338.112274,521.421204 
M410.107178,318.709381 
	C403.370148,321.911774 397.095520,325.743530 392.851379,330.630127 
	C420.017517,329.251373 447.688995,327.890961 475.354340,326.416656 
	C483.960541,325.958038 492.550354,325.191040 502.347137,324.477844 
	C498.519257,317.573639 493.634796,314.342957 488.162994,313.178253 
	C477.000732,310.802246 465.673126,308.306152 454.336060,307.868011 
	C439.082428,307.278503 424.287170,310.759308 410.107178,318.709381 
M202.077744,370.542145 
	C203.292038,370.806549 204.680191,371.585480 205.689865,371.244293 
	C209.593918,369.925262 213.284164,367.935089 217.223679,366.766937 
	C227.492996,363.721924 237.851822,360.978851 248.432343,358.043976 
	C248.056580,352.847931 244.514542,349.604126 240.575089,346.882721 
	C232.424789,341.252289 223.774582,341.244873 215.115250,345.616089 
	C205.250092,350.595978 201.311768,358.966522 202.077744,370.542145 
z"/>
<path fill="#FDFDFD" opacity="1.000000" stroke="none" 
	d="
M313.514801,411.019714 
	C313.689026,411.441315 313.863251,411.862915 313.780273,412.868591 
	C313.681305,415.894470 314.115295,418.356445 313.938721,420.773804 
	C313.599274,425.420074 315.445496,428.718475 319.351715,431.026093 
	C324.979370,454.348358 325.031036,477.889862 321.357300,501.419952 
	C319.904449,510.725311 317.054077,519.821777 314.660706,528.966431 
	C313.691467,532.669739 311.607452,533.794678 307.619781,532.048828 
	C284.268402,521.825439 259.301025,520.426819 234.345505,518.968567 
	C218.205261,518.025391 202.205795,516.071411 186.299072,510.622375 
	C183.961517,508.822693 182.032135,507.547150 180.102753,506.271606 
	C183.276184,506.092865 186.089218,507.171143 188.989136,507.906952 
	C190.159836,508.203979 191.741257,508.144867 192.756958,507.573883 
	C197.421967,504.951538 201.953110,502.090973 207.950974,498.456116 
	C208.853058,495.846008 208.853058,495.846008 206.813950,494.202240 
	C214.646835,485.868073 216.932587,476.094269 216.644058,465.483124 
	C216.354614,454.837830 211.877533,445.759338 205.932892,436.855225 
	C205.970551,433.504120 205.970551,430.565735 205.970551,426.637573 
	C203.042557,427.273712 199.798904,427.978455 196.533173,428.674194 
	C196.511093,428.665253 196.467087,428.646942 196.620392,428.269470 
	C197.468597,427.282440 198.080124,426.300842 198.871841,426.123444 
	C204.139496,424.942963 207.382004,422.461517 207.492355,416.388977 
	C207.569778,412.127960 210.365570,410.521027 214.694824,411.972992 
	C218.082611,413.109192 221.587585,413.895966 225.191528,415.130432 
	C225.995712,417.590759 225.281616,420.670807 228.991348,421.178345 
	C229.818588,423.820038 230.869522,424.631134 232.790329,422.405090 
	C235.616379,419.129944 237.683014,406.603607 235.668015,402.851501 
	C234.347290,400.392120 232.457214,400.216370 230.442993,402.433899 
	C229.797134,401.486633 229.397903,400.745087 229.008240,399.627625 
	C229.191727,397.697723 229.365662,396.143768 229.611847,393.944305 
	C228.057846,395.238678 226.993362,396.125336 225.623428,396.878418 
	C223.546631,395.805420 221.775269,394.866028 220.004395,393.525909 
	C220.255325,389.724762 218.292999,388.429596 215.387466,389.118744 
	C213.249496,389.625885 211.433578,391.428680 209.298431,392.025787 
	C206.623489,392.773865 201.723236,393.897095 201.324524,393.095978 
	C198.792786,388.009216 194.980835,389.707092 191.258286,390.239716 
	C193.549515,388.182037 195.840744,386.124359 198.822021,384.144257 
	C202.237747,383.834503 204.963409,383.447174 207.689087,383.059814 
	C209.799988,383.234619 212.884277,388.030060 214.216217,382.821442 
	C216.014633,375.788666 221.347168,374.911957 225.859848,375.667297 
	C232.393784,376.760956 233.118530,372.643829 234.931412,368.823395 
	C238.010910,368.141083 241.090424,367.458771 244.789185,367.154053 
	C248.396423,369.445007 251.300690,369.980133 254.048721,367.147247 
	C254.192520,367.332336 254.279602,367.380341 254.366699,367.428345 
	C254.247910,367.282898 254.129105,367.137421 254.009674,366.700073 
	C254.001617,366.213776 253.994171,366.019318 253.986755,365.824860 
	C254.239883,365.067352 254.493011,364.309845 255.217682,363.240936 
	C256.939362,360.890625 258.191498,358.852966 259.439026,356.812469 
	C260.401367,355.238403 261.015533,353.211243 262.382263,352.170319 
	C266.269775,349.209503 270.379425,346.512360 274.561646,343.975067 
	C278.147400,341.799683 280.806946,337.509613 286.054993,338.707550 
	C286.497742,338.808624 287.348755,337.121124 288.010132,336.264587 
	C290.146149,336.729370 292.282196,337.194153 294.711243,338.254944 
	C295.732025,340.521698 296.459747,342.192535 297.187500,343.863373 
	C297.578613,343.806824 297.969757,343.750275 298.360901,343.693726 
	C298.659485,342.541168 298.958069,341.388611 299.256683,340.236084 
	C300.170380,340.903412 301.084106,341.570770 301.815155,342.774475 
	C303.648468,347.462677 308.906494,350.054382 307.657471,355.900665 
	C307.580872,356.259247 310.125824,357.177917 311.451019,357.835999 
	C311.568573,359.310913 311.686096,360.785828 311.379883,362.614807 
	C307.873230,363.878418 309.183350,364.911926 310.871826,365.956116 
	C310.842133,367.438995 310.812439,368.921844 310.187256,370.745728 
	C307.935394,373.900055 302.232605,375.373535 306.582397,380.175446 
	C305.648834,381.698914 304.715240,383.222412 303.099731,384.892700 
	C297.295532,386.017242 295.951019,388.933228 299.402252,392.425903 
	C301.086670,394.130585 303.783447,394.834869 306.022003,395.991974 
	C307.704010,399.028870 309.385986,402.065796 310.947357,405.757629 
	C311.722748,407.948273 312.618774,409.483978 313.514801,411.019714 
z"/>
<path fill="#FAFBFA" opacity="1.000000" stroke="none" 
	d="
M336.100220,479.899780 
	C331.919098,445.431091 327.923706,411.389282 323.534576,377.398315 
	C321.710999,363.275787 323.067169,360.073761 336.204254,354.301880 
	C349.368988,348.517792 363.042023,344.554535 377.375488,342.980225 
	C401.715607,340.306915 411.912537,355.584229 413.956573,374.908264 
	C415.364868,388.222290 412.023315,400.338379 402.617706,410.358490 
	C402.070648,410.941284 401.643555,411.636658 401.542480,411.771210 
	C406.490387,416.033813 411.804260,419.600128 415.845306,424.268280 
	C433.290314,444.420441 423.682037,481.277618 398.706848,490.389954 
	C382.356384,496.355530 365.263611,497.527985 348.040222,496.922424 
	C341.608765,496.696320 338.016205,493.030975 337.003052,486.777832 
	C336.657135,484.643036 336.416107,482.491211 336.100220,479.899780 
M388.811646,440.732605 
	C387.829407,440.113922 386.902344,439.374542 385.855927,438.896301 
	C379.496796,435.989746 372.826904,436.460876 367.035797,439.491241 
	C362.427795,441.902496 365.664124,447.378204 365.005402,451.428131 
	C364.900085,452.075836 364.993011,452.757843 365.012268,453.423462 
	C365.261475,462.043274 367.348480,463.930267 376.078583,463.095978 
	C378.368561,462.877167 380.734863,462.454529 382.851471,461.596222 
	C392.512390,457.678558 394.800232,450.387299 388.811646,440.732605 
M358.352112,393.057098 
	C358.521271,394.541870 358.683167,396.027527 358.860809,397.511292 
	C359.551819,403.283417 361.149963,404.643372 366.679810,403.084595 
	C372.660492,401.398712 378.081726,398.536835 381.532837,393.001434 
	C385.161163,387.181671 384.736298,376.238068 374.418365,375.671204 
	C369.392120,375.395111 363.790100,376.853302 359.343353,379.212616 
	C357.637329,380.117828 358.385956,385.714600 358.095154,389.180267 
	C358.012817,390.161438 358.209564,391.166077 358.352112,393.057098 
z"/>
<path fill="#FBFCFB" opacity="1.000000" stroke="none" 
	d="
M345.318817,681.296753 
	C343.330261,682.243591 341.542816,682.834045 340.055511,683.859802 
	C329.143799,691.384827 319.625153,689.599365 309.395111,681.455139 
	C291.935699,667.555603 274.377716,653.905212 260.454224,636.237427 
	C259.734192,635.323792 259.087677,634.350647 258.431641,633.388428 
	C251.450943,623.149414 254.325073,613.317993 265.721222,608.238159 
	C279.295319,602.187500 291.343262,605.933228 302.702942,613.964478 
	C305.115143,615.669800 307.329193,617.655457 310.710724,620.378601 
	C316.521301,612.117249 322.814484,604.379883 327.724121,595.846436 
	C332.560669,587.440002 335.995331,578.227051 340.064880,569.324646 
	C360.632782,582.085144 383.106293,589.443726 405.766479,596.528992 
	C409.987488,597.848816 413.301453,602.213562 416.895447,605.332825 
	C418.643951,606.850281 420.100800,608.711548 421.641113,610.459900 
	C426.900391,616.429626 426.778290,616.598206 421.472839,622.820557 
	C400.319550,647.629333 374.126984,665.857727 345.318817,681.296753 
z"/>
<path fill="#FAFAFA" opacity="1.000000" stroke="none" 
	d="
M657.708557,462.659180 
	C653.312561,456.026184 649.151794,449.663910 645.193909,443.177826 
	C640.291565,435.143982 635.557434,427.007446 630.750610,418.915283 
	C630.137390,418.991669 629.524109,419.068085 628.910889,419.144470 
	C628.578247,421.381500 627.928955,423.624329 627.969543,425.854553 
	C628.118042,434.016937 628.710327,442.174408 628.737305,450.335022 
	C628.776978,462.333405 614.979126,470.550018 604.392822,464.593964 
	C602.141846,463.327484 600.267395,459.678131 599.974731,456.939087 
	C598.666016,444.687561 598.005859,432.367157 597.086670,420.073456 
	C594.801331,389.505066 592.484131,358.938995 590.237915,328.367706 
	C590.019165,325.390137 589.714172,322.282043 590.305359,319.410797 
	C591.478699,313.711548 596.348083,311.884369 601.227112,311.539490 
	C614.643250,310.591217 628.173279,308.985992 641.522156,309.819855 
	C670.799927,311.648743 681.663940,332.182770 680.352051,357.160919 
	C679.518250,373.035858 674.310608,386.751282 660.592407,396.146545 
	C657.132935,398.515839 657.380859,401.633698 659.147583,404.936310 
	C664.791992,415.487427 670.646851,425.933838 675.976196,436.641785 
	C678.221680,441.153442 680.267273,446.121979 680.786987,451.053223 
	C681.611328,458.876282 676.325623,463.934875 668.392822,463.955261 
	C664.940796,463.964111 661.486877,463.256927 657.708557,462.659180 
M635.053833,375.093781 
	C646.451416,371.822021 650.740845,364.457306 648.125549,352.650665 
	C646.526428,345.431793 638.298645,340.676666 629.697632,341.962311 
	C625.700073,342.559814 623.355896,344.390533 623.630676,348.870300 
	C623.977234,354.519989 624.036072,360.187439 624.216736,365.847260 
	C624.499268,374.694031 625.421753,375.562531 635.053833,375.093781 
z"/>
<path fill="#FCFCFC" opacity="1.000000" stroke="none" 
	d="
M547.591797,626.123291 
	C545.737976,645.785217 544.758972,665.109985 541.760925,684.116211 
	C539.162842,700.586609 532.146057,705.663269 515.360229,706.044312 
	C491.720001,706.581055 468.069305,706.748962 444.422272,706.826111 
	C438.979950,706.843872 432.804565,706.644653 430.117249,700.762939 
	C427.015381,693.973755 429.629333,687.582458 434.066956,682.264282 
	C441.186218,673.732483 451.066772,670.443420 461.703674,668.961121 
	C462.850677,668.801270 464.004944,668.683960 465.142883,668.475952 
	C465.423889,668.424622 465.653992,668.094788 466.298187,667.581787 
	C459.300079,643.547485 445.542236,622.864197 431.153015,601.327820 
	C433.880524,601.121643 435.584045,600.840820 437.278595,600.887207 
	C471.907776,601.834167 506.534454,602.878296 541.166199,603.714722 
	C545.208618,603.812378 546.850647,605.266113 546.931091,609.171692 
	C547.044373,614.665894 547.360535,620.156006 547.591797,626.123291 
z"/>
<path fill="#FBFCFB" opacity="1.000000" stroke="none" 
	d="
M726.905273,641.096558 
	C722.935791,637.275879 719.209595,633.712280 715.559631,630.072144 
	C713.142944,627.661926 713.853271,625.907532 716.992065,625.177429 
	C719.246582,624.653015 721.576904,624.354675 723.889954,624.196411 
	C758.768311,621.809998 792.678711,614.941406 825.362732,602.369507 
	C827.462891,601.561646 829.289917,600.800049 830.818176,603.514893 
	C839.190186,618.387207 849.835266,632.026123 855.220825,648.511780 
	C856.248718,651.658142 857.273560,654.845825 857.839600,658.094666 
	C859.137695,665.544983 857.177612,671.964172 850.989075,676.708557 
	C836.395569,687.896240 820.557739,697.126282 803.474182,703.707458 
	C790.685242,708.634155 776.869202,707.275940 763.408691,706.452148 
	C758.472839,706.150085 753.554199,704.990417 748.715393,703.849854 
	C744.314575,702.812622 742.136292,699.699646 741.905457,695.140991 
	C741.472229,686.588257 745.244446,680.250305 752.492981,676.216309 
	C757.804382,673.260376 763.541931,671.070251 768.087708,668.996033 
	C754.776855,659.990723 740.978882,650.655945 726.905273,641.096558 
z"/>
<path fill="#FAFAFA" opacity="1.000000" stroke="none" 
	d="
M510.728760,401.627747 
	C512.883362,381.965454 515.079224,362.772430 517.161316,343.567108 
	C518.222778,333.776672 522.454224,327.033295 532.978943,325.434845 
	C538.066895,324.662140 543.026367,323.069580 548.103760,322.195343 
	C557.012756,320.661316 561.722961,323.125916 564.434631,332.014923 
	C569.907471,349.955322 575.477478,367.916901 579.716980,386.169464 
	C584.682861,407.549286 588.256775,429.251770 592.474976,450.806366 
	C593.553711,456.318420 593.448853,461.798584 588.878845,465.547028 
	C583.774292,469.733948 577.306213,469.967041 571.314514,468.122437 
	C569.061096,467.428711 566.963745,464.159180 566.044678,461.612946 
	C563.850647,455.533936 562.517456,449.150299 560.603638,442.961700 
	C559.495850,439.379333 557.389221,437.829742 553.073425,438.737366 
	C537.170715,442.081604 538.650635,440.099243 536.911377,455.985535 
	C536.585144,458.965607 536.243042,461.944000 535.909363,464.923309 
	C535.113708,472.026886 532.322266,475.246094 525.394775,476.953461 
	C523.781372,477.351105 522.142456,477.692352 520.495056,477.896790 
	C511.441254,479.020264 508.122742,476.588776 508.341034,467.491180 
	C508.864197,445.684967 509.896240,423.890930 510.728760,401.627747 
M550.912781,380.600861 
	C550.060791,377.384460 549.507996,374.044159 548.246460,370.997314 
	C547.468079,369.117279 545.609436,367.684540 544.235779,366.050964 
	C542.805969,367.796692 540.347473,369.417511 540.117737,371.308990 
	C538.875549,381.536377 538.007446,391.821045 537.442566,402.109680 
	C537.317322,404.390503 538.817749,408.710876 539.768005,408.767548 
	C544.211609,409.032684 548.882202,408.646210 553.116882,407.341278 
	C554.391724,406.948425 555.348999,402.726074 555.021484,400.465149 
	C554.093445,394.057922 552.425659,387.757812 550.912781,380.600861 
z"/>
<path fill="#FAFAFA" opacity="1.000000" stroke="none" 
	d="
M449.924072,335.968079 
	C462.674347,335.159790 474.965240,334.338165 487.261627,333.609070 
	C494.414856,333.184937 497.696777,336.211212 498.091827,343.390137 
	C498.146698,344.387329 498.153992,345.387848 498.157898,346.386932 
	C498.218811,361.874939 495.356628,364.815613 479.768005,366.174683 
	C473.650360,366.708038 467.579926,367.833984 461.506958,368.808289 
	C458.082977,369.357605 456.498260,371.617645 456.072479,375.000610 
	C454.241455,389.547333 456.890076,392.294159 471.360016,390.820465 
	C475.330078,390.416138 479.319092,389.986847 483.301483,389.966278 
	C488.694794,389.938385 491.997711,392.886566 492.944794,398.161285 
	C493.238220,399.795502 493.349213,401.467987 493.460846,403.128510 
	C494.407990,417.217773 490.934143,421.335449 476.884857,422.916687 
	C473.248169,423.325958 469.623749,423.849365 465.999329,424.360229 
	C462.147186,424.903168 460.116608,427.158691 459.885345,431.034210 
	C458.794464,449.316895 461.199493,450.702026 476.789459,448.161102 
	C481.709717,447.359192 486.702240,446.879364 491.681335,446.591248 
	C497.517822,446.253540 500.668854,448.464142 501.230743,454.341003 
	C501.794006,460.232269 501.682953,466.307495 500.896149,472.171783 
	C500.226776,477.160706 496.629456,480.348999 491.417542,481.081970 
	C476.092072,483.237305 460.772491,485.444733 445.421539,487.404236 
	C437.748199,488.383728 434.560364,485.752808 433.874329,477.928497 
	C430.253326,436.630890 426.658142,395.330536 423.254150,354.014679 
	C422.280182,342.193176 424.816345,339.332642 436.569763,337.474731 
	C440.840149,336.799683 445.166290,336.477020 449.924072,335.968079 
z"/>
<path fill="#FBFBFB" opacity="1.000000" stroke="none" 
	d="
M651.893982,703.449707 
	C628.430176,703.605774 605.447266,703.544128 582.474304,703.989929 
	C566.828857,704.293579 564.979126,695.204163 570.518311,683.879150 
	C575.363647,673.972900 584.861938,670.106201 595.116028,667.985229 
	C597.685608,667.453735 600.285217,667.067688 602.061890,666.756470 
	C600.094055,650.795654 598.103333,635.153015 596.267212,619.492188 
	C595.592407,613.736755 597.118347,612.418213 602.675537,613.792236 
	C633.225647,621.346130 664.380005,623.747986 695.694458,624.824829 
	C696.859253,624.864868 698.029724,624.831055 699.188721,624.932617 
	C704.044495,625.358276 704.980591,626.709290 702.560913,630.893677 
	C690.798645,651.233704 681.401611,672.651917 673.083923,694.579041 
	C671.046692,699.949707 667.056396,702.780334 661.360779,703.145935 
	C658.372742,703.337708 655.373413,703.353149 651.893982,703.449707 
z"/>
<path fill="#F9F9F9" opacity="1.000000" stroke="none" 
	d="
M766.415894,477.750732 
	C761.921814,475.407288 760.230408,472.093384 760.672607,467.344574 
	C761.660767,456.732239 762.009094,446.047394 763.349670,435.484985 
	C764.357605,427.543976 762.644348,420.304047 759.963013,413.077606 
	C752.329285,392.503601 744.676208,371.936798 737.029175,351.367737 
	C736.971313,351.211975 736.850769,351.070099 736.828247,350.911957 
	C736.338257,347.471008 733.560852,343.854675 737.039001,340.652771 
	C740.662842,337.316681 743.871399,340.554779 747.060974,341.838776 
	C758.875244,346.594879 766.712524,354.795349 770.170593,367.384338 
	C772.227844,374.873718 775.363831,382.091278 778.386292,389.274750 
	C779.196716,391.200684 781.594055,394.022339 782.864929,393.828186 
	C784.816833,393.529999 786.779541,391.223358 788.093201,389.323425 
	C789.969482,386.609711 791.149231,383.426086 792.833984,380.565369 
	C795.235962,376.486481 797.258301,376.094727 800.770935,379.265320 
	C802.976379,381.256012 805.367920,383.445251 806.561646,386.055145 
	C808.256165,389.759583 810.806702,390.489014 814.408691,390.667023 
	C829.248291,391.400177 842.011780,396.676422 849.179749,410.334320 
	C856.362793,424.020935 854.978577,438.085815 847.330017,451.318542 
	C843.594177,457.781982 839.441101,459.832336 832.283142,460.225220 
	C827.895325,443.611542 822.216858,427.373383 811.373108,411.987823 
	C804.670410,421.012085 793.534912,426.073792 791.935913,438.726166 
	C790.704529,448.469940 789.314697,458.193756 787.981873,467.924591 
	C787.801575,469.240875 787.586548,470.555573 787.313721,471.855499 
	C785.544373,480.286530 783.128601,481.989288 774.878052,480.311249 
	C772.124512,479.751190 769.464844,478.729645 766.415894,477.750732 
z"/>
<path fill="#F9F8F8" opacity="1.000000" stroke="none" 
	d="
M707.364807,476.757019 
	C711.441650,477.286987 715.108887,477.558594 718.686462,478.276947 
	C730.042786,480.557159 736.029053,487.010712 736.839600,499.396210 
	C737.715576,512.783386 737.139465,526.086792 727.834778,537.239746 
	C727.124390,538.091309 727.192017,540.362854 727.816833,541.442810 
	C738.758789,560.357544 736.795288,579.853027 729.973938,599.255859 
	C726.567383,608.945862 718.898987,613.927551 708.369019,613.891174 
	C703.042297,613.872742 697.707703,614.003662 692.390869,613.759033 
	C684.763245,613.408081 682.990295,611.464172 683.309998,603.901489 
	C684.090149,585.442017 685.057129,566.990356 685.801819,548.529602 
	C686.606873,528.573914 687.314331,508.613617 687.927734,488.651154 
	C688.261780,477.779358 690.469116,475.592560 701.456116,476.130188 
	C703.280457,476.219482 705.095093,476.507111 707.364807,476.757019 
M715.599060,558.065491 
	C714.728210,557.330688 713.970581,556.325256 712.967896,555.905579 
	C707.067261,553.436279 703.728699,553.216125 703.576538,560.911377 
	C703.439026,567.865051 702.821533,574.808289 702.621521,581.762024 
	C702.477234,586.776062 705.116882,589.142090 709.697754,587.351440 
	C712.433472,586.282104 715.606018,583.671936 716.495850,581.047058 
	C718.971252,573.745483 719.249695,566.115173 715.599060,558.065491 
M720.053284,511.522766 
	C719.012939,508.477570 718.716248,504.726349 716.702515,502.605225 
	C715.018311,500.831024 711.257019,500.303864 708.557861,500.586029 
	C707.524597,500.694092 706.476440,504.522858 706.156067,506.759399 
	C705.543823,511.032990 705.360352,515.376831 705.172119,519.699036 
	C705.061707,522.236694 704.143921,525.882446 707.861511,526.102051 
	C710.603638,526.264038 714.567932,525.299011 716.010864,523.362915 
	C718.243347,520.367493 718.788757,516.114624 720.053284,511.522766 
z"/>
<path fill="#F9F9FA" opacity="1.000000" stroke="none" 
	d="
M689.901367,351.885315 
	C690.095032,343.737610 690.162048,336.070679 690.499146,328.415619 
	C690.766602,322.341919 693.183411,319.919617 699.147522,321.206757 
	C705.066895,322.484253 710.991333,324.601929 716.328308,327.448364 
	C720.806763,329.836853 722.436707,334.705200 722.126526,339.923340 
	C720.920654,360.205261 719.742981,380.488892 718.504822,400.768799 
	C717.987122,409.247772 717.207336,417.712616 716.804626,426.196106 
	C716.516968,432.256561 718.162109,434.324463 724.015991,435.697388 
	C730.481628,437.213806 737.002686,438.493500 743.498901,439.879883 
	C748.480042,440.942932 751.003235,444.398315 751.026855,449.117065 
	C751.052368,454.212555 750.613037,459.408722 749.546204,464.382843 
	C748.540222,469.073151 744.802063,471.049866 740.041809,470.520813 
	C726.476807,469.013184 712.915039,467.472168 699.365112,465.835663 
	C691.610352,464.899048 687.174744,459.668549 687.214233,450.779724 
	C687.282288,435.456757 687.644043,420.132599 688.076843,404.814392 
	C688.570862,387.330200 689.277161,369.851990 689.901367,351.885315 
z"/>
<path fill="#F8F8F8" opacity="1.000000" stroke="none" 
	d="
M659.949219,593.034363 
	C659.759705,588.224304 659.506165,583.905273 659.391785,579.582581 
	C659.254211,574.380066 655.615356,573.495239 651.580139,573.148315 
	C647.409912,572.789734 645.586304,575.117554 645.019958,578.974060 
	C644.005798,585.880371 642.927612,592.778259 641.783325,599.664246 
	C640.780090,605.700867 638.808228,607.361267 633.324585,607.052917 
	C626.997742,606.697144 623.214905,603.715515 623.661499,598.113647 
	C624.400024,588.849182 625.702209,579.607910 627.217041,570.431152 
	C631.712524,543.197266 636.417236,515.997864 641.061157,488.788605 
	C643.398071,475.096039 655.366089,469.068695 667.605774,475.837708 
	C669.755981,477.026794 671.503540,480.513184 671.841431,483.143585 
	C673.472717,495.844696 675.049316,508.589569 675.733643,521.367737 
	C677.077209,546.455627 677.822632,571.575500 678.793030,596.683044 
	C678.857239,598.343628 678.778809,600.014221 678.686462,601.675659 
	C678.175293,610.869202 670.417236,614.783447 662.661987,609.498352 
	C661.196594,608.499695 660.312073,605.945496 660.077637,603.998535 
	C659.662476,600.551697 659.952026,597.020020 659.949219,593.034363 
M658.357666,516.269775 
	C657.789001,514.133057 657.220337,511.996277 656.367920,508.793243 
	C655.063293,510.693787 654.094482,511.501312 653.917419,512.455750 
	C651.950439,523.055603 649.888123,533.646545 648.340759,544.310852 
	C647.758057,548.326294 651.133911,549.756958 654.540894,549.814575 
	C657.884827,549.871155 660.442383,548.347900 660.226929,544.455261 
	C659.722107,535.333679 659.102722,526.218445 658.357666,516.269775 
z"/>
<path fill="#F7F7F7" opacity="1.000000" stroke="none" 
	d="
M470.442200,591.882446 
	C460.202576,588.019714 455.438049,580.030273 453.145447,570.439270 
	C448.885376,552.617188 447.494080,534.598450 451.008362,516.444641 
	C452.497375,508.752808 455.362793,501.659424 462.009216,496.949402 
	C473.261108,488.975677 486.575165,491.869324 493.884613,503.672150 
	C498.836334,511.667847 500.522980,520.669800 501.571869,529.788879 
	C503.411285,545.781372 503.786316,561.727356 497.894226,577.110962 
	C492.894684,590.164062 484.621582,594.608948 470.442200,591.882446 
M476.858643,516.597961 
	C471.539856,516.418213 469.207916,518.264465 468.066345,524.444702 
	C465.795990,536.735779 466.724762,548.997009 469.135406,561.166626 
	C469.952667,565.292358 472.314667,568.296326 476.869476,568.296936 
	C481.420532,568.297546 482.489288,564.590210 483.136505,561.126282 
	C485.432343,548.838806 484.942871,536.571106 481.801575,524.502502 
	C481.095123,521.788391 478.991425,519.437866 476.858643,516.597961 
z"/>
<path fill="#F8F8F8" opacity="1.000000" stroke="none" 
	d="
M817.658691,497.457123 
	C818.855957,497.769409 819.679626,497.900665 820.487976,498.095276 
	C832.652405,501.023987 834.484253,503.838593 831.882629,516.161804 
	C831.159485,519.587036 829.204834,521.861633 825.177063,521.142944 
	C820.263916,520.266357 815.334778,519.478943 810.425232,518.583435 
	C806.629517,517.891174 804.738403,519.473694 804.511780,523.251221 
	C804.392456,525.240417 804.182495,527.225586 804.111328,529.216003 
	C803.987793,532.676270 805.881836,534.432983 809.157776,534.825195 
	C812.795898,535.260925 816.442932,535.627625 820.090454,535.978821 
	C823.379700,536.295349 825.373352,538.091736 825.617432,541.328369 
	C825.840576,544.287537 826.379761,547.596313 825.338318,550.167114 
	C824.389648,552.508667 821.698425,554.367371 819.394714,555.845947 
	C818.177551,556.627136 816.149719,556.195190 814.486450,556.223389 
	C803.278381,556.413513 800.816895,559.181702 801.814697,570.476013 
	C802.099304,573.697815 803.723938,575.458618 807.035217,574.969910 
	C811.794617,574.267517 816.542236,573.451965 821.259766,572.508972 
	C825.439941,571.673462 827.221069,573.412476 827.166809,577.471924 
	C827.140076,579.470581 827.162537,581.472046 827.061951,583.467163 
	C826.678772,591.061035 825.305115,593.135742 818.190979,595.463135 
	C809.198486,598.405029 800.132141,601.128845 791.054382,603.799744 
	C785.091980,605.553894 782.559082,603.722595 782.726196,597.289307 
	C783.076538,583.806702 783.574097,570.320618 784.394470,556.859314 
	C785.458069,539.407349 786.916138,521.979675 788.163818,504.538727 
	C788.927979,493.857941 791.703796,491.693756 802.187439,493.899078 
	C807.233215,494.960480 812.248718,496.165527 817.658691,497.457123 
z"/>
<path fill="#F7F7F6" opacity="1.000000" stroke="none" 
	d="
M442.720276,590.971191 
	C436.849792,591.529175 433.052246,589.119690 430.460693,584.439697 
	C426.839050,577.899414 423.184509,571.377075 419.486328,564.879883 
	C418.656311,563.421692 417.587738,562.099243 416.628998,560.714294 
	C416.175232,560.833740 415.721436,560.953125 415.267639,561.072571 
	C415.041779,562.585083 414.570374,564.108887 414.639374,565.607849 
	C414.799866,569.092896 415.096100,572.582764 415.562408,576.040283 
	C416.523071,583.162659 415.372131,587.132019 411.981201,587.715576 
	C405.166840,588.888489 398.030212,584.099670 397.467133,577.494690 
	C395.587830,555.450684 393.811676,533.396301 392.237427,511.328613 
	C391.657074,503.193542 392.977783,501.329895 400.943573,500.381683 
	C409.808929,499.326416 418.800873,498.787994 427.723267,498.930450 
	C434.954254,499.045898 439.732910,503.563721 441.530457,510.561859 
	C444.056458,520.395996 444.289520,530.297363 440.899323,540.029358 
	C440.253082,541.884338 439.163544,543.632324 438.040039,545.265625 
	C432.458557,553.379944 432.441101,553.735291 437.826416,562.268311 
	C441.371674,567.885803 445.121399,573.395813 448.307312,579.212646 
	C451.667725,585.348022 449.539948,589.711182 442.720276,590.971191 
M425.817230,528.262268 
	C425.342041,525.672119 425.228394,522.945496 424.313782,520.521118 
	C422.592743,515.959229 418.603485,515.370605 414.401001,515.969360 
	C410.056244,516.588501 410.896942,520.122498 410.880005,522.990662 
	C410.861420,526.140137 410.939972,529.302490 411.212860,532.438660 
	C411.648560,537.446533 414.377319,538.925659 419.037903,537.390686 
	C423.228912,536.010376 425.015900,533.041321 425.817230,528.262268 
z"/>
<path fill="#F8F8F8" opacity="1.000000" stroke="none" 
	d="
M622.905396,475.482788 
	C631.603821,475.628082 632.809753,476.844299 632.870972,485.087860 
	C632.880859,486.420868 632.888489,487.755127 632.845154,489.087128 
	C632.460938,500.890533 629.484619,501.983032 621.068115,500.979675 
	C616.391968,500.422241 615.159302,503.210510 615.176208,507.453522 
	C615.284119,534.617371 615.253906,561.781738 615.269348,588.945923 
	C615.269897,589.945862 615.287048,590.945984 615.271484,591.945618 
	C615.160950,599.040894 612.685791,602.351685 607.408813,602.474915 
	C600.073486,602.646179 596.127319,599.153320 596.117554,591.742920 
	C596.091797,572.078918 596.325867,552.414673 596.418457,532.750366 
	C596.456177,524.752625 596.542480,516.750427 596.328369,508.757782 
	C596.182190,503.301239 595.029053,502.520630 589.520386,503.003815 
	C580.727661,503.775055 579.620361,502.806854 579.185059,493.967529 
	C578.453918,479.117798 578.455994,479.144806 593.606689,477.943756 
	C603.230469,477.180847 612.846741,476.323090 622.905396,475.482788 
z"/>
<path fill="#F7F7F7" opacity="1.000000" stroke="none" 
	d="
M548.997314,500.999847 
	C547.480225,505.678345 544.075256,507.350220 539.401367,507.113007 
	C538.078613,507.045898 536.740295,507.179810 535.414612,507.288544 
	C523.539734,508.262695 521.111145,511.761810 524.225525,523.419373 
	C525.045105,526.487183 526.773682,528.389038 530.256531,528.096191 
	C533.238831,527.845520 536.245422,527.828491 539.213013,527.472351 
	C543.261108,526.986633 545.784241,528.752380 546.455261,532.584656 
	C548.635376,545.034912 545.806396,548.924805 535.468506,549.242188 
	C526.647339,549.513062 526.487671,550.097656 526.955688,559.144470 
	C527.368164,567.118958 528.212463,575.074585 528.490784,583.051636 
	C528.771118,591.085510 524.848083,594.303040 516.956848,593.052124 
	C512.093384,592.281128 510.282806,589.981567 509.966705,583.803345 
	C509.388763,572.507202 509.008606,561.200134 508.344788,549.909485 
	C507.309967,532.308350 506.052216,514.720398 505.008118,497.119720 
	C504.679565,491.581390 506.445099,489.191223 511.584564,488.362518 
	C521.429443,486.775146 531.315369,485.441040 541.188904,484.033813 
	C543.915405,483.645233 546.602173,483.509003 548.206421,487.445038 
	C548.660583,492.446503 548.828918,496.723175 548.997314,500.999847 
z"/>
<path fill="#F8F8F8" opacity="1.000000" stroke="none" 
	d="
M760.701904,487.209686 
	C762.131836,489.778870 764.264954,492.236908 764.140320,494.574554 
	C762.774902,520.185669 761.058044,545.778076 759.432312,571.375244 
	C759.347839,572.705139 759.195679,574.030945 759.123291,575.361267 
	C758.703247,583.082336 759.743835,583.999146 767.604187,582.870239 
	C778.365540,581.324585 779.081543,581.982605 778.298340,592.747009 
	C778.177429,594.408203 778.054443,596.071655 777.850891,597.724060 
	C777.046326,604.256470 774.733398,606.896912 768.268188,608.015381 
	C761.379333,609.207153 754.453613,610.216125 747.517761,611.098083 
	C740.742249,611.959717 739.098633,610.483765 739.462402,603.454407 
	C740.684753,579.830444 742.051880,556.213928 743.392212,532.596191 
	C744.109497,519.957886 744.699829,507.308411 745.692627,494.691132 
	C746.502258,484.402100 750.560242,482.431030 760.701904,487.209686 
z"/>
<path fill="#F7F7F6" opacity="1.000000" stroke="none" 
	d="
M338.088196,520.958801 
	C337.984589,519.000854 337.903320,517.505371 337.825745,516.009766 
	C337.349579,506.832031 338.817993,505.082886 347.889923,504.867554 
	C354.372375,504.713623 360.880035,504.642212 367.346832,505.028961 
	C378.096344,505.671844 384.780487,511.109955 386.941223,521.576965 
	C388.032288,526.862244 388.372620,532.536377 387.767975,537.889587 
	C386.473907,549.346436 379.712646,554.416016 368.233643,553.568115 
	C365.438873,553.361694 362.644836,553.145386 359.045654,552.872681 
	C359.263336,556.273193 359.442444,559.177124 359.636536,562.080078 
	C360.018555,567.793274 357.670013,569.286377 352.468201,567.181396 
	C344.507019,563.959961 340.643250,558.792725 340.677338,549.728027 
	C340.712799,540.295776 339.038788,530.857056 338.088196,520.958801 
M370.386597,532.698792 
	C371.010315,522.227905 367.529633,518.976013 356.636261,520.649658 
	C356.905701,525.317017 357.113678,530.074280 357.521210,534.814514 
	C357.587097,535.581055 358.384064,536.585693 359.108490,536.944702 
	C363.074127,538.909851 367.576019,537.423523 370.386597,532.698792 
z"/>
<path fill="#F8F8F8" opacity="1.000000" stroke="none" 
	d="
M554.887024,487.992920 
	C556.555481,482.549927 560.254028,480.280609 566.247925,481.022095 
	C571.796082,481.708466 573.548950,483.828644 573.739624,490.186615 
	C574.663208,520.983643 575.577881,551.780945 576.486023,582.578430 
	C576.520264,583.741577 576.509338,584.911499 576.427246,586.071716 
	C575.910950,593.370422 573.741577,595.348022 566.362488,595.294922 
	C559.728333,595.247192 557.061768,592.766602 556.896118,585.847412 
	C556.210388,557.208923 555.635925,528.567749 555.027344,499.021118 
	C554.985046,494.740753 554.936035,491.366821 554.887024,487.992920 
z"/>
<path fill="#F5F6F5" opacity="1.000000" stroke="none" 
	d="
M225.040497,414.838043 
	C221.587585,413.895966 218.082611,413.109192 214.694824,411.972992 
	C210.365570,410.521027 207.569778,412.127960 207.492355,416.388977 
	C207.382004,422.461517 204.139496,424.942963 198.871841,426.123444 
	C198.080124,426.300842 197.468597,427.282440 196.312668,428.104004 
	C182.930756,418.161285 164.768921,420.144348 151.215149,427.826019 
	C155.131607,437.536255 151.886185,448.359741 142.669373,455.006195 
	C138.507355,457.264709 134.732697,456.326324 130.957596,455.002594 
	C128.890228,450.895264 126.120979,446.985291 124.899071,442.640198 
	C122.211594,433.083557 126.561409,426.342377 136.232773,424.055145 
	C148.122467,421.243286 160.021851,418.462036 171.968460,415.908020 
	C175.093933,415.239838 176.585403,413.565399 178.105621,410.914886 
	C182.106567,403.939301 186.586349,397.238342 191.066849,390.333862 
	C194.980835,389.707092 198.792786,388.009216 201.324524,393.095978 
	C201.723236,393.897095 206.623489,392.773865 209.298431,392.025787 
	C211.433578,391.428680 213.249496,389.625885 215.387466,389.118744 
	C218.292999,388.429596 220.255325,389.724762 219.570343,393.582031 
	C209.440277,391.857635 197.801376,402.972534 196.841629,414.263306 
	C196.589462,417.229828 197.899109,417.845428 200.361877,418.378082 
	C203.232132,418.998871 204.147354,417.955109 204.718674,415.326111 
	C205.193619,413.140564 206.401306,411.114197 207.622025,409.011475 
	C208.621384,408.307220 209.283142,407.608795 209.960876,406.953430 
	C209.976868,406.996460 209.907852,406.935883 210.293945,406.963562 
	C211.785248,406.304016 212.890442,405.616760 214.371490,404.737305 
	C221.679077,404.475311 223.106506,409.909973 225.040497,414.838043 
z"/>
<path fill="#F5F6F5" opacity="1.000000" stroke="none" 
	d="
M410.408508,318.492340 
	C424.287170,310.759308 439.082428,307.278503 454.336060,307.868011 
	C465.673126,308.306152 477.000732,310.802246 488.162994,313.178253 
	C493.634796,314.342957 498.519257,317.573639 502.347137,324.477844 
	C492.550354,325.191040 483.960541,325.958038 475.354340,326.416656 
	C447.688995,327.890961 420.017517,329.251373 392.851379,330.630127 
	C397.095520,325.743530 403.370148,321.911774 410.408508,318.492340 
z"/>
<path fill="#ECECEB" opacity="1.000000" stroke="none" 
	d="
M130.950958,455.374573 
	C134.732697,456.326324 138.507355,457.264709 142.507568,455.304321 
	C138.380844,457.959045 138.928162,461.244934 141.196411,464.622192 
	C142.739365,466.919586 144.377213,469.259613 146.402908,471.109344 
	C161.237366,484.655548 185.092209,480.120117 194.170685,462.137360 
	C195.129166,460.238770 196.182877,458.388306 197.959183,455.093018 
	C201.614639,459.272736 204.636032,462.727478 207.657425,466.182190 
	C207.251755,466.605408 206.846100,467.028656 206.440430,467.451874 
	C204.662628,466.479187 202.884827,465.506470 200.677429,464.298737 
	C197.273026,480.350433 189.177185,492.460632 172.680817,497.637115 
	C183.140808,504.730896 195.473694,503.459656 206.541962,494.555664 
	C208.853058,495.846008 208.853058,495.846008 207.950974,498.456116 
	C201.953110,502.090973 197.421967,504.951538 192.756958,507.573883 
	C191.741257,508.144867 190.159836,508.203979 188.989136,507.906952 
	C186.089218,507.171143 183.276184,506.092865 180.102753,506.271606 
	C182.032135,507.547150 183.961517,508.822693 185.955856,510.433716 
	C177.300522,508.414642 169.564041,504.511322 163.724350,496.725311 
	C165.733383,494.859589 167.584686,493.140381 170.079803,491.273712 
	C172.875000,489.419220 175.026337,487.712189 177.177689,486.005127 
	C176.961533,485.601349 176.745361,485.197571 176.529205,484.793762 
	C173.345428,484.973907 170.161652,485.154053 166.977875,485.334167 
	C149.545319,484.909119 138.853836,475.526794 132.929764,459.762451 
	C132.407059,458.371552 131.612579,457.082794 130.950958,455.374573 
z"/>
<path fill="#F5F6F5" opacity="1.000000" stroke="none" 
	d="
M202.006592,370.147156 
	C201.311768,358.966522 205.250092,350.595978 215.115250,345.616089 
	C223.774582,341.244873 232.424789,341.252289 240.575089,346.882721 
	C244.514542,349.604126 248.056580,352.847931 248.432343,358.043976 
	C237.851822,360.978851 227.492996,363.721924 217.223679,366.766937 
	C213.284164,367.935089 209.593918,369.925262 205.689865,371.244293 
	C204.680191,371.585480 203.292038,370.806549 202.006592,370.147156 
z"/>
<path fill="#F5F6F5" opacity="1.000000" stroke="none" 
	d="
M287.573547,336.138702 
	C287.348755,337.121124 286.497742,338.808624 286.054993,338.707550 
	C280.806946,337.509613 278.147400,341.799683 274.561646,343.975067 
	C270.379425,346.512360 266.269775,349.209503 262.382263,352.170319 
	C261.015533,353.211243 260.401367,355.238403 259.439026,356.812469 
	C258.191498,358.852966 256.939362,360.890625 255.338501,362.964508 
	C254.808563,351.726593 267.756195,336.710236 282.178528,336.073853 
	C283.829010,336.001038 285.484009,336.030670 287.573547,336.138702 
z"/>
<path fill="#F5F6F5" opacity="1.000000" stroke="none" 
	d="
M234.517548,368.797028 
	C233.118530,372.643829 232.393784,376.760956 225.859848,375.667297 
	C221.347168,374.911957 216.014633,375.788666 214.216217,382.821442 
	C212.884277,388.030060 209.799988,383.234619 207.689087,383.059814 
	C204.963409,383.447174 202.237747,383.834503 199.168976,384.068787 
	C209.025833,375.235168 221.261307,371.296112 234.517548,368.797028 
z"/>
<path fill="#0C0C0C" opacity="1.000000" stroke="none" 
	d="
M554.531982,487.985504 
	C554.936035,491.366821 554.985046,494.740753 554.926514,498.562805 
	C553.111145,499.649811 551.403320,500.288696 549.346436,500.963715 
	C548.828918,496.723175 548.660583,492.446503 548.423706,487.725769 
	C550.295776,487.513824 552.236389,487.745972 554.531982,487.985504 
z"/>
<path fill="#0C0C0C" opacity="1.000000" stroke="none" 
	d="
M166.865433,485.672791 
	C170.161652,485.154053 173.345428,484.973907 176.529205,484.793762 
	C176.745361,485.197571 176.961533,485.601349 177.177689,486.005127 
	C175.026337,487.712189 172.875000,489.419220 170.363998,491.088745 
	C168.927933,490.654999 167.853088,490.254425 166.774765,489.863464 
	C164.819672,489.154724 162.862488,488.451752 160.541489,487.614899 
	C162.940323,486.995636 164.846649,486.503510 166.865433,485.672791 
z"/>
<path fill="#F5F6F5" opacity="1.000000" stroke="none" 
	d="
M319.406067,430.652130 
	C315.445496,428.718475 313.599274,425.420074 313.938721,420.773804 
	C314.115295,418.356445 313.681305,415.894470 313.796997,413.212646 
	C315.867432,418.741150 317.663910,424.509674 319.406067,430.652130 
z"/>
<path fill="#F5F6F5" opacity="1.000000" stroke="none" 
	d="
M305.981873,395.638428 
	C303.783447,394.834869 301.086670,394.130585 299.402252,392.425903 
	C295.951019,388.933228 297.295532,386.017242 302.809448,385.059631 
	C302.567017,386.194763 301.932983,387.309753 301.234894,388.537445 
	C302.763916,390.729340 304.352814,393.007111 305.981873,395.638428 
z"/>
<path fill="#F5F6F5" opacity="1.000000" stroke="none" 
	d="
M311.497345,357.429443 
	C310.125824,357.177917 307.580872,356.259247 307.657471,355.900665 
	C308.906494,350.054382 303.648468,347.462677 301.891296,343.124481 
	C308.657410,345.381409 310.233551,351.113434 311.497345,357.429443 
z"/>
<path fill="#F5F6F5" opacity="1.000000" stroke="none" 
	d="
M306.805176,379.930603 
	C302.232605,375.373535 307.935394,373.900055 309.969666,371.061371 
	C309.241058,373.919250 308.134491,376.802490 306.805176,379.930603 
z"/>
<path fill="#F5F6F5" opacity="1.000000" stroke="none" 
	d="
M253.554474,365.819672 
	C253.994171,366.019318 254.001617,366.213776 254.004517,366.704102 
	C254.000000,367.000000 253.992020,367.010193 253.992020,367.010193 
	C251.300690,369.980133 248.396423,369.445007 245.191513,367.231964 
	C247.690445,366.559692 250.406326,366.187103 253.554474,365.819672 
z"/>
<path fill="#F5F6F5" opacity="1.000000" stroke="none" 
	d="
M299.062805,340.003845 
	C298.958069,341.388611 298.659485,342.541168 298.360901,343.693726 
	C297.969757,343.750275 297.578613,343.806824 297.187500,343.863373 
	C296.459747,342.192535 295.732025,340.521698 294.999756,338.479492 
	C296.286469,338.662598 297.577728,339.217102 299.062805,340.003845 
z"/>
<path fill="#F5F6F5" opacity="1.000000" stroke="none" 
	d="
M313.547668,410.694031 
	C312.618774,409.483978 311.722748,407.948273 310.958649,406.112549 
	C311.920563,407.331177 312.750519,408.849792 313.547668,410.694031 
z"/>
<path fill="#F5F6F5" opacity="1.000000" stroke="none" 
	d="
M311.176575,365.805847 
	C309.183350,364.911926 307.873230,363.878418 311.269775,362.974854 
	C311.549377,363.872437 311.515350,364.764008 311.176575,365.805847 
z"/>
<path fill="#060505" opacity="1.000000" stroke="none" 
	d="
M206.813950,494.202240 
	C195.473694,503.459656 183.140808,504.730896 172.680817,497.637115 
	C189.177185,492.460632 197.273026,480.350433 200.677429,464.298737 
	C202.884827,465.506470 204.662628,466.479187 206.440430,467.451874 
	C206.846100,467.028656 207.251755,466.605408 207.657425,466.182190 
	C204.636032,462.727478 201.614639,459.272736 197.959183,455.093018 
	C196.182877,458.388306 195.129166,460.238770 194.170685,462.137360 
	C185.092209,480.120117 161.237366,484.655548 146.402908,471.109344 
	C144.377213,469.259613 142.739365,466.919586 141.196411,464.622192 
	C138.928162,461.244934 138.380844,457.959045 142.898499,455.320557 
	C151.886185,448.359741 155.131607,437.536255 151.215149,427.826019 
	C164.768921,420.144348 182.930756,418.161285 196.159363,428.481445 
	C196.467087,428.646942 196.511093,428.665253 196.757751,428.897400 
	C199.968018,431.842346 202.931641,434.555176 205.895264,437.268005 
	C211.877533,445.759338 216.354614,454.837830 216.644058,465.483124 
	C216.932587,476.094269 214.646835,485.868073 206.813950,494.202240 
z"/>
<path fill="#0C0C0C" opacity="1.000000" stroke="none" 
	d="
M207.284424,409.017303 
	C206.401306,411.114197 205.193619,413.140564 204.718674,415.326111 
	C204.147354,417.955109 203.232132,418.998871 200.361877,418.378082 
	C197.899109,417.845428 196.589462,417.229828 196.841629,414.263306 
	C197.801376,402.972534 209.440277,391.857635 219.569855,393.982727 
	C221.775269,394.866028 223.546631,395.805420 225.703491,397.184937 
	C227.058899,398.417877 228.028793,399.210693 228.998672,400.003540 
	C229.397903,400.745087 229.797134,401.486633 230.444153,402.800995 
	C234.030533,411.148590 233.455109,416.909729 228.948547,420.828308 
	C225.281616,420.670807 225.995712,417.590759 225.191528,415.130432 
	C223.106506,409.909973 221.679077,404.475311 214.028381,404.677124 
	C212.175552,405.518036 211.041702,406.226959 209.907837,406.935852 
	C209.907852,406.935883 209.976868,406.996460 209.658295,406.991150 
	C208.654617,407.662994 207.969513,408.340149 207.284424,409.017303 
z"/>
<path fill="#F5F6F5" opacity="1.000000" stroke="none" 
	d="
M228.991348,421.178345 
	C233.455109,416.909729 234.030533,411.148590 230.690765,403.006714 
	C232.457214,400.216370 234.347290,400.392120 235.668015,402.851501 
	C237.683014,406.603607 235.616379,419.129944 232.790329,422.405090 
	C230.869522,424.631134 229.818588,423.820038 228.991348,421.178345 
z"/>
<path fill="#F5F6F5" opacity="1.000000" stroke="none" 
	d="
M205.932907,436.855225 
	C202.931641,434.555176 199.968018,431.842346 196.779846,428.906342 
	C199.798904,427.978455 203.042557,427.273712 205.970551,426.637573 
	C205.970551,430.565735 205.970551,433.504120 205.932907,436.855225 
z"/>
<path fill="#F5F6F5" opacity="1.000000" stroke="none" 
	d="
M229.008240,399.627625 
	C228.028793,399.210693 227.058899,398.417877 226.008942,397.318542 
	C226.993362,396.125336 228.057846,395.238678 229.611847,393.944305 
	C229.365662,396.143768 229.191727,397.697723 229.008240,399.627625 
z"/>
<path fill="#F5F6F5" opacity="1.000000" stroke="none" 
	d="
M254.005157,366.995972 
	C254.129105,367.137421 254.247910,367.282898 254.366699,367.428345 
	C254.279602,367.380341 254.192520,367.332336 254.048721,367.147247 
	C253.992020,367.010193 254.000000,367.000000 254.005157,366.995972 
z"/>
<path fill="#060505" opacity="1.000000" stroke="none" 
	d="
M389.120117,440.964294 
	C394.800232,450.387299 392.512390,457.678558 382.851471,461.596222 
	C380.734863,462.454529 378.368561,462.877167 376.078583,463.095978 
	C367.348480,463.930267 365.261475,462.043274 365.012268,453.423462 
	C364.993011,452.757843 364.900085,452.075836 365.005402,451.428131 
	C365.664124,447.378204 362.427795,441.902496 367.035797,439.491241 
	C372.826904,436.460876 379.496796,435.989746 385.855927,438.896301 
	C386.902344,439.374542 387.829407,440.113922 389.120117,440.964294 
z"/>
<path fill="#080808" opacity="1.000000" stroke="none" 
	d="
M358.315216,392.608521 
	C358.209564,391.166077 358.012817,390.161438 358.095154,389.180267 
	C358.385956,385.714600 357.637329,380.117828 359.343353,379.212616 
	C363.790100,376.853302 369.392120,375.395111 374.418365,375.671204 
	C384.736298,376.238068 385.161163,387.181671 381.532837,393.001434 
	C378.081726,398.536835 372.660492,401.398712 366.679810,403.084595 
	C361.149963,404.643372 359.551819,403.283417 358.860809,397.511292 
	C358.683167,396.027527 358.521271,394.541870 358.315216,392.608521 
z"/>
<path fill="#060505" opacity="1.000000" stroke="none" 
	d="
M634.625610,375.164490 
	C625.421753,375.562531 624.499268,374.694031 624.216736,365.847260 
	C624.036072,360.187439 623.977234,354.519989 623.630676,348.870300 
	C623.355896,344.390533 625.700073,342.559814 629.697632,341.962311 
	C638.298645,340.676666 646.526428,345.431793 648.125549,352.650665 
	C650.740845,364.457306 646.451416,371.822021 634.625610,375.164490 
z"/>
<path fill="#080808" opacity="1.000000" stroke="none" 
	d="
M550.980957,381.008179 
	C552.425659,387.757812 554.093445,394.057922 555.021484,400.465149 
	C555.348999,402.726074 554.391724,406.948425 553.116882,407.341278 
	C548.882202,408.646210 544.211609,409.032684 539.768005,408.767548 
	C538.817749,408.710876 537.317322,404.390503 537.442566,402.109680 
	C538.007446,391.821045 538.875549,381.536377 540.117737,371.308990 
	C540.347473,369.417511 542.805969,367.796692 544.235779,366.050964 
	C545.609436,367.684540 547.468079,369.117279 548.246460,370.997314 
	C549.507996,374.044159 550.060791,377.384460 550.980957,381.008179 
z"/>
<path fill="#080808" opacity="1.000000" stroke="none" 
	d="
M715.749634,558.423096 
	C719.249695,566.115173 718.971252,573.745483 716.495850,581.047058 
	C715.606018,583.671936 712.433472,586.282104 709.697754,587.351440 
	C705.116882,589.142090 702.477234,586.776062 702.621521,581.762024 
	C702.821533,574.808289 703.439026,567.865051 703.576538,560.911377 
	C703.728699,553.216125 707.067261,553.436279 712.967896,555.905579 
	C713.970581,556.325256 714.728210,557.330688 715.749634,558.423096 
z"/>
<path fill="#0C0C0C" opacity="1.000000" stroke="none" 
	d="
M720.051392,511.958893 
	C718.788757,516.114624 718.243347,520.367493 716.010864,523.362915 
	C714.567932,525.299011 710.603638,526.264038 707.861511,526.102051 
	C704.143921,525.882446 705.061707,522.236694 705.172119,519.699036 
	C705.360352,515.376831 705.543823,511.032990 706.156067,506.759399 
	C706.476440,504.522858 707.524597,500.694092 708.557861,500.586029 
	C711.257019,500.303864 715.018311,500.831024 716.702515,502.605225 
	C718.716248,504.726349 719.012939,508.477570 720.051392,511.958893 
z"/>
<path fill="#0C0C0C" opacity="1.000000" stroke="none" 
	d="
M658.443665,516.685181 
	C659.102722,526.218445 659.722107,535.333679 660.226929,544.455261 
	C660.442383,548.347900 657.884827,549.871155 654.540894,549.814575 
	C651.133911,549.756958 647.758057,548.326294 648.340759,544.310852 
	C649.888123,533.646545 651.950439,523.055603 653.917419,512.455750 
	C654.094482,511.501312 655.063293,510.693787 656.367920,508.793243 
	C657.220337,511.996277 657.789001,514.133057 658.443665,516.685181 
z"/>
<path fill="#060505" opacity="1.000000" stroke="none" 
	d="
M477.194794,516.758972 
	C478.991425,519.437866 481.095123,521.788391 481.801575,524.502502 
	C484.942871,536.571106 485.432343,548.838806 483.136505,561.126282 
	C482.489288,564.590210 481.420532,568.297546 476.869476,568.296936 
	C472.314667,568.296326 469.952667,565.292358 469.135406,561.166626 
	C466.724762,548.997009 465.795990,536.735779 468.066345,524.444702 
	C469.207916,518.264465 471.539856,516.418213 477.194794,516.758972 
z"/>
<path fill="#0C0C0C" opacity="1.000000" stroke="none" 
	d="
M425.801147,528.666260 
	C425.015900,533.041321 423.228912,536.010376 419.037903,537.390686 
	C414.377319,538.925659 411.648560,537.446533 411.212860,532.438660 
	C410.939972,529.302490 410.861420,526.140137 410.880005,522.990662 
	C410.896942,520.122498 410.056244,516.588501 414.401001,515.969360 
	C418.603485,515.370605 422.592743,515.959229 424.313782,520.521118 
	C425.228394,522.945496 425.342041,525.672119 425.801147,528.666260 
z"/>
<path fill="#0C0C0C" opacity="1.000000" stroke="none" 
	d="
M370.279999,533.076538 
	C367.576019,537.423523 363.074127,538.909851 359.108490,536.944702 
	C358.384064,536.585693 357.587097,535.581055 357.521210,534.814514 
	C357.113678,530.074280 356.905701,525.317017 356.636261,520.649658 
	C367.529633,518.976013 371.010315,522.227905 370.279999,533.076538 
z"/>
<path fill="#ECECEB" opacity="1.000000" stroke="none" 
	d="
M210.293945,406.963562 
	C211.041702,406.226959 212.175552,405.518036 213.652527,404.869324 
	C212.890442,405.616760 211.785248,406.304016 210.293945,406.963562 
z"/>
<path fill="#ECECEB" opacity="1.000000" stroke="none" 
	d="
M207.622009,409.011475 
	C207.969513,408.340149 208.654617,407.662994 209.642319,406.948120 
	C209.283142,407.608795 208.621384,408.307220 207.622009,409.011475 
z"/>
</svg>