<svg version="1.1" id="Layer_1" xmlns="http://www.w3.org/2000/svg" xmlns:xlink="http://www.w3.org/1999/xlink" x="0px" y="0px"
	 width="100%" viewBox="0 0 1024 1024" enable-background="new 0 0 1024 1024" xml:space="preserve">
<path fill="#000000" opacity="1.000000" stroke="none" 
	d="
M164.950043,498.819397 
	C162.767563,495.856018 164.833847,494.629150 166.630325,493.385712 
	C169.850174,491.157166 173.309662,489.224457 176.553253,485.369110 
	C170.321762,486.146332 165.160370,486.705475 159.886887,485.534180 
	C149.699814,483.271515 141.708221,477.870392 136.597137,468.957916 
	C132.319565,461.498871 128.534439,453.667084 125.410530,445.657440 
	C120.395798,432.799713 127.351471,422.823486 141.231018,422.771179 
	C147.984482,422.745697 153.688263,419.226837 160.055054,418.303497 
	C171.394455,416.658936 178.150269,410.925873 183.530365,400.240051 
	C192.848221,381.733063 210.929382,373.882721 230.127930,368.916962 
	C235.742722,367.464661 241.513214,366.404846 247.278839,365.814514 
	C251.560898,365.376068 253.689026,363.807068 254.784973,359.487549 
	C258.268616,345.757111 270.029572,336.014130 282.870087,335.661377 
	C305.332275,335.044220 318.287354,352.957336 310.723999,374.171295 
	C309.203217,378.436768 307.208130,382.452423 304.296631,385.944946 
	C302.681519,387.882355 302.583832,389.470428 304.215088,391.643433 
	C315.256165,406.351105 319.534851,423.594330 322.199677,441.325531 
	C324.982147,459.838989 325.391357,478.472931 323.250519,497.069611 
	C321.957336,508.302826 319.862396,519.423401 315.120117,529.870544 
	C313.497375,533.445435 311.351624,534.628662 307.660461,532.981384 
	C285.455872,523.071716 261.808472,521.392700 237.937332,520.096375 
	C218.367355,519.033630 198.751053,517.227966 180.334488,509.390961 
	C174.578018,506.941345 169.364685,503.815735 164.950043,498.819397 
M176.387680,422.249817 
	C169.769821,421.899170 163.536743,423.727539 157.309937,425.605927 
	C153.722504,426.688110 151.248413,428.258179 153.374557,432.645386 
	C154.249466,434.450714 154.139221,436.490936 153.702805,438.526306 
	C152.115799,445.928070 148.884186,452.357880 142.688629,456.923798 
	C140.602066,458.461517 139.963470,459.868805 140.971054,462.367249 
	C144.839798,471.960449 157.842331,479.750946 168.117920,478.352783 
	C180.433029,476.677063 190.156555,471.169250 195.598022,459.452362 
	C196.624435,457.242188 197.815338,454.950409 200.798782,456.788971 
	C204.791718,459.249664 207.196182,462.739899 207.412201,467.326508 
	C205.103516,468.960358 203.683685,466.125641 201.593796,467.221497 
	C200.037018,473.778168 196.800797,479.749451 192.876846,485.375031 
	C188.824051,491.185303 181.958389,493.606476 176.475159,498.045197 
	C187.657349,505.071533 203.885666,499.886993 210.751038,487.463959 
	C215.635117,478.626129 217.522430,469.228180 215.736099,459.086670 
	C212.460098,440.487976 194.770004,423.394318 176.387680,422.249817 
M221.904907,395.431366 
	C214.190964,391.478180 202.664810,398.318970 199.020523,409.419464 
	C198.138657,412.105591 196.436401,415.705444 200.376404,417.211365 
	C204.530853,418.799194 203.754272,414.322418 205.040054,412.408722 
	C205.131622,412.272430 205.180420,412.107330 205.248917,411.955536 
	C207.624588,406.691193 212.310516,403.431824 216.772537,403.940216 
	C221.262711,404.451752 224.810287,408.143860 226.356140,413.631317 
	C226.911499,415.602783 226.455826,418.009369 228.462372,419.469635 
	C235.580399,414.578857 232.307404,401.556152 221.904907,395.431366 
z"/>
<path fill="#000000" opacity="1.000000" stroke="none" 
	d="
M327.517944,358.517731 
	C339.831207,350.333862 353.408661,346.494476 367.330536,343.775452 
	C372.523865,342.761200 377.895935,342.291321 383.192230,342.246429 
	C397.530762,342.124817 407.667664,349.291138 412.263275,362.920044 
	C416.808075,376.398010 416.702728,389.675201 409.545013,402.481567 
	C407.655701,405.861847 404.039093,407.870087 402.731903,411.778564 
	C403.758881,414.269318 406.382019,414.948059 408.374756,416.292725 
	C418.309906,422.996704 423.290894,432.365448 424.462128,444.211609 
	C425.042877,450.085785 424.918823,455.849182 423.887360,461.571899 
	C420.778687,478.818909 409.289673,488.265442 393.428253,493.133423 
	C380.444092,497.118408 366.951813,498.036407 353.464722,498.200195 
	C341.570160,498.344635 336.793823,493.201416 335.638977,481.406769 
	C332.951263,453.956879 330.001068,426.531219 326.049805,399.225189 
	C324.765472,390.349518 323.669067,381.445709 322.302277,372.583221 
	C321.440308,366.993805 322.930420,362.410767 327.517944,358.517731 
M365.548462,450.996918 
	C367.446564,463.473145 371.182709,465.531494 383.270172,460.691101 
	C384.643524,460.141174 385.994965,459.441895 387.203217,458.593506 
	C389.935669,456.674988 391.386078,453.970367 391.643341,450.626160 
	C392.273621,442.433838 387.622986,438.307343 377.579376,438.162384 
	C366.446045,438.001770 364.976318,439.448395 365.548462,450.996918 
M362.412994,377.803314 
	C360.170166,378.699005 358.163971,379.784943 358.147034,382.656494 
	C358.113647,388.317017 358.884552,393.885712 360.027100,399.411896 
	C360.443634,401.426636 361.543243,402.932312 363.768555,402.543640 
	C371.015015,401.277863 377.660400,398.728973 381.415192,391.848694 
	C385.804688,383.805359 381.125519,376.206482 371.951965,376.113892 
	C368.941956,376.083527 365.989868,376.380829 362.412994,377.803314 
z"/>
<path fill="#000000" opacity="1.000000" stroke="none" 
	d="
M300.458679,611.443787 
	C301.038269,611.835266 301.313995,612.022217 301.591125,612.207275 
	C311.261536,618.664490 311.210480,618.624146 318.339996,609.603394 
	C326.814484,598.881042 332.622345,586.790894 337.012726,573.939941 
	C338.868988,568.506470 339.618896,568.269043 344.294189,571.046387 
	C362.041931,581.589111 381.358704,588.548340 401.008240,594.232605 
	C409.824982,596.783203 415.274658,602.441772 420.777008,608.555054 
	C428.115967,616.709045 428.022888,616.962708 420.639618,625.337585 
	C399.069519,649.804382 372.637360,667.850647 344.016876,682.948792 
	C340.050995,685.040894 335.847504,686.677429 331.809784,688.639587 
	C327.175385,690.891846 322.676361,690.515686 318.526245,687.739380 
	C296.275604,672.854004 275.538788,656.191162 259.197906,634.747253 
	C250.289215,623.056519 253.541565,612.669067 267.280396,607.119751 
	C278.973267,602.396790 289.792145,605.111511 300.458679,611.443787 
z"/>
<path fill="#000000" opacity="1.000000" stroke="none" 
	d="
M631.991272,308.666199 
	C639.705627,308.321045 646.790894,309.099457 653.701965,311.239166 
	C671.044678,316.608673 679.087769,329.596100 680.926270,346.524841 
	C682.560364,361.571899 680.219299,376.130585 670.501831,388.623413 
	C668.118652,391.687225 665.274475,394.265656 662.095520,396.398895 
	C658.509460,398.805237 657.908447,401.570984 659.909607,405.318207 
	C665.793579,416.335999 671.572144,427.410126 677.379700,438.468658 
	C678.231140,440.090027 679.091614,441.713684 679.818848,443.392181 
	C683.481873,451.846588 681.945068,459.635925 676.001038,462.976746 
	C668.116638,467.408203 657.772095,465.579468 652.804382,458.373444 
	C646.552917,449.305267 643.161987,438.618744 637.000427,429.470551 
	C634.911438,426.368927 633.483826,422.717834 630.167114,420.601532 
	C627.684204,421.709595 628.276245,423.782104 628.325928,425.471588 
	C628.585266,434.287750 629.137024,443.097900 629.260498,451.914703 
	C629.377441,460.257874 625.651062,464.514923 617.390503,465.877319 
	C614.943787,466.280823 612.413452,466.287903 609.921631,466.285217 
	C603.469788,466.278229 600.367981,463.716156 599.694824,457.228821 
	C598.544495,446.142731 597.589294,435.033112 596.756531,423.918030 
	C595.066162,401.357361 593.505554,378.786926 591.905273,356.219543 
	C591.163757,345.762695 590.288513,335.311554 589.785950,324.842834 
	C589.415833,317.133514 592.211121,313.445404 599.764587,311.530273 
	C610.164185,308.893494 620.815186,308.497314 631.991272,308.666199 
M629.959106,343.031036 
	C625.532715,343.385590 624.078003,346.058319 624.138428,350.170319 
	C624.234070,356.669983 624.425598,363.149628 625.114990,369.626862 
	C625.514465,373.380035 627.312256,374.829407 630.935852,374.910034 
	C641.761841,375.150818 648.002258,369.034821 647.964233,358.040863 
	C647.927063,347.285645 644.578308,343.712372 633.824036,342.985626 
	C632.828979,342.918396 631.825806,342.971436 629.959106,343.031036 
z"/>
<path fill="#000000" opacity="1.000000" stroke="none" 
	d="
M437.197510,600.683960 
	C470.960175,601.408508 504.245758,602.112549 537.530151,602.870178 
	C546.242798,603.068420 546.730774,603.469177 547.463013,612.208557 
	C549.575439,637.420532 548.019897,662.427795 542.157166,687.043152 
	C538.902588,700.707764 532.640137,705.503540 518.572510,706.334595 
	C493.475037,707.817505 468.365265,708.542358 443.226959,707.338013 
	C430.933929,706.749084 425.715027,699.006042 430.324158,687.759094 
	C435.353607,675.486389 446.270477,671.574280 457.860352,668.751404 
	C460.235443,668.172974 462.681152,667.884399 465.070099,667.466431 
	C465.339325,664.367126 464.032410,662.162720 463.136597,659.893494 
	C455.637146,640.896240 445.505585,623.361389 433.615631,606.794434 
	C430.347351,602.240479 431.015594,601.083862 437.197510,600.683960 
z"/>
<path fill="#000000" opacity="1.000000" stroke="none" 
	d="
M844.954651,625.121887 
	C850.844849,635.809814 855.896423,646.405029 858.571533,658.075378 
	C860.225586,665.290894 858.191284,671.364990 852.963135,675.649536 
	C836.362183,689.254272 818.140381,700.613953 797.234619,705.840027 
	C783.038269,709.388855 768.076172,708.398010 753.570435,705.876648 
	C742.149536,703.891479 738.654846,696.046692 743.546082,685.465210 
	C746.533569,679.002319 751.605957,675.059631 758.012756,672.468933 
	C760.734192,671.368530 763.378784,670.078003 765.990662,668.904175 
	C765.334656,666.403259 763.404602,666.288574 762.019836,665.536011 
	C745.565918,656.593994 729.791260,646.735229 717.318604,632.434509 
	C715.867920,630.771301 713.158875,629.305237 714.355713,626.634827 
	C715.599426,623.859863 718.574707,623.833435 721.286743,623.640503 
	C742.368164,622.140808 763.294250,619.548035 783.899963,614.694702 
	C797.365784,611.523010 810.431885,607.049744 823.335510,602.167969 
	C828.106018,600.363159 830.647522,601.447083 833.027283,605.648193 
	C836.716736,612.161255 840.829407,618.434631 844.954651,625.121887 
z"/>
<path fill="#000000" opacity="1.000000" stroke="none" 
	d="
M509.317627,416.466003 
	C510.870819,390.602448 513.227783,365.304962 517.590393,340.203674 
	C518.981995,332.196533 522.962036,327.228149 530.922668,325.411682 
	C537.720703,323.860565 544.395813,321.730347 551.462280,321.580963 
	C559.471497,321.411713 562.160461,323.228363 565.170410,331.111237 
	C569.688416,342.943329 572.759888,355.213562 576.016968,367.418823 
	C583.225281,394.430939 588.427795,421.865387 592.864075,449.449097 
	C593.336304,452.385223 593.316772,455.425079 593.274170,458.413208 
	C593.220520,462.178314 591.479431,465.365967 588.269714,467.125671 
	C583.174194,469.919250 577.533569,470.577698 571.813477,469.512299 
	C568.273926,468.853027 566.600525,466.186890 565.763367,462.915070 
	C564.279785,457.117065 562.974792,451.267944 561.305176,445.524445 
	C559.610107,439.693298 557.804382,438.723938 551.743958,439.617889 
	C539.056763,441.489319 538.638916,441.922852 537.380005,454.769592 
	C536.990784,458.741150 536.594116,462.713104 536.292236,466.691833 
	C535.909058,471.744080 533.314697,475.091583 528.567505,476.660187 
	C526.211548,477.438690 523.760620,478.032532 521.306091,478.391510 
	C512.031921,479.748016 508.134796,476.690765 507.828766,467.327087 
	C507.279114,450.506775 508.028168,433.706390 509.317627,416.466003 
M549.191956,376.230927 
	C548.830627,374.952423 548.508850,373.661041 548.099243,372.398224 
	C547.391602,370.216827 547.040833,367.408752 544.082642,367.399567 
	C540.875061,367.389618 540.799561,370.500854 540.533325,372.579498 
	C539.225952,382.787109 538.130249,393.025940 538.290527,403.347534 
	C538.319397,405.207367 538.252014,407.414062 540.221130,408.117920 
	C544.273010,409.566315 548.404724,409.257263 552.260681,407.222778 
	C555.947632,405.277466 555.131165,401.812103 554.517090,398.817719 
	C553.017212,391.504700 551.166809,384.263550 549.191956,376.230927 
z"/>
<path fill="#000000" opacity="1.000000" stroke="none" 
	d="
M489.271851,365.721985 
	C480.477417,366.952515 472.047028,367.910400 463.668121,369.202209 
	C458.152222,370.052612 456.262939,372.537354 456.414886,378.071655 
	C456.478607,380.391724 457.128845,382.699677 457.148407,385.016174 
	C457.187775,389.673950 459.709412,391.122864 463.919861,390.822662 
	C469.893707,390.396790 475.867188,389.837036 481.849518,389.691010 
	C490.002289,389.492004 493.539246,392.701111 494.226685,400.750610 
	C494.509247,404.058807 494.489410,407.425171 494.247833,410.738892 
	C493.778412,417.178711 490.224335,421.035065 483.827332,422.341339 
	C479.263000,423.273407 474.698853,424.180450 470.016632,424.421295 
	C468.043213,424.522797 465.786163,424.625610 464.190765,425.600037 
	C457.484924,429.695740 460.693726,436.360626 460.668091,441.972748 
	C460.648804,446.210266 463.159271,449.236145 468.103394,448.687653 
	C475.043152,447.917786 481.981079,447.122955 488.906921,446.238251 
	C497.647766,445.121674 501.942047,448.584869 502.266052,457.298035 
	C502.408386,461.125977 502.407623,464.966339 502.288483,468.795380 
	C502.055267,476.293549 497.973724,480.996429 490.590179,482.064667 
	C476.098816,484.161346 461.594177,486.170502 447.080597,488.107727 
	C439.023102,489.183258 433.785767,485.714874 433.255859,477.767426 
	C432.426392,465.327637 430.873627,452.937866 429.769531,440.514252 
	C427.752441,417.818115 425.779358,395.117706 423.917114,372.408478 
	C423.305237,364.947052 422.859833,357.455963 422.761200,349.972839 
	C422.655945,341.986542 426.283508,337.784576 434.217743,336.939545 
	C446.456970,335.635986 458.739532,334.730469 471.010040,333.733948 
	C476.151062,333.316467 481.304932,332.928406 486.458832,332.828674 
	C494.334625,332.676239 497.591125,335.543793 498.843964,343.423950 
	C499.474976,347.392914 499.583710,351.384064 498.732422,355.348053 
	C497.634277,360.461761 494.918365,364.157654 489.271851,365.721985 
z"/>
<path fill="#000000" opacity="1.000000" stroke="none" 
	d="
M661.642334,622.188965 
	C672.225647,622.760620 682.353882,623.255737 692.482910,623.731995 
	C694.477356,623.825745 696.490479,623.709595 698.468689,623.928040 
	C704.045471,624.544067 705.547363,627.149963 702.726807,632.004211 
	C696.363220,642.956116 690.962952,654.372864 685.726501,665.882263 
	C681.522583,675.122498 677.714478,684.519348 674.282410,694.072571 
	C671.611206,701.507935 668.072754,704.057068 660.156799,704.312988 
	C633.372070,705.178711 606.588623,705.574768 579.800415,704.362915 
	C569.891357,703.914551 565.638123,698.463379 568.178894,688.792175 
	C571.004578,678.036560 579.031067,672.444153 588.824829,668.877197 
	C591.460754,667.917236 594.297363,667.066101 597.061768,667.000122 
	C601.680359,666.889771 602.345825,664.697937 601.331482,660.892517 
	C597.720764,647.346619 596.604248,633.419617 595.169861,619.548767 
	C594.630920,614.336975 596.707886,612.572510 601.995789,613.651245 
	C621.560852,617.642639 641.291626,620.445007 661.642334,622.188965 
z"/>
<path fill="#000000" opacity="1.000000" stroke="none" 
	d="
M844.089783,401.913086 
	C856.206116,413.468689 856.224487,435.499878 849.877991,448.948761 
	C847.440430,454.114380 843.379028,457.766571 838.195923,460.095612 
	C833.561462,462.178070 832.147278,461.444672 830.717041,456.498077 
	C826.817505,443.011566 821.531799,430.106079 814.486023,417.947906 
	C813.676575,416.551147 813.201599,414.828003 811.251160,414.015198 
	C800.733032,423.003876 791.810974,432.769623 791.238525,447.930603 
	C790.932678,456.031342 789.357788,464.090332 788.243958,472.152710 
	C787.105103,480.395416 782.575562,483.413910 774.656738,481.261139 
	C772.253052,480.607697 769.889343,479.776276 767.558960,478.890442 
	C762.198547,476.852875 759.621643,473.074005 760.074463,467.299500 
	C760.879822,457.029846 761.405151,446.696350 763.028503,436.546417 
	C764.248596,428.917816 762.910034,421.979065 760.297302,415.087311 
	C753.278992,396.574677 746.108643,378.119720 739.022461,359.632690 
	C737.351990,355.274475 735.855530,350.834778 735.269592,346.194794 
	C734.551575,340.508942 738.244507,337.200714 743.476562,339.366150 
	C754.633301,343.983459 765.343262,348.995331 769.113281,362.408600 
	C771.666992,371.494446 775.780029,380.142578 779.208679,388.981415 
	C779.941956,390.871765 780.788330,392.953552 783.013245,393.206085 
	C785.369690,393.473511 786.380493,391.305817 787.370361,389.626434 
	C789.144104,386.617340 790.565430,383.394196 792.423462,380.442657 
	C795.011475,376.331604 797.249390,376.095215 800.881104,379.186310 
	C806.271729,383.774475 817.479980,389.477570 824.283081,391.129578 
	C831.715576,392.934387 838.287476,396.348999 844.089783,401.913086 
z"/>
<path fill="#000000" opacity="1.000000" stroke="none" 
	d="
M686.660706,519.880920 
	C687.006409,507.918457 687.291748,496.439392 687.718018,484.965546 
	C687.931091,479.230774 690.783997,476.025299 696.180908,475.805267 
	C705.197693,475.437653 714.123169,476.445892 722.837891,478.818146 
	C734.363892,481.955719 737.536255,491.119629 738.012207,501.458893 
	C738.599365,514.213318 737.843994,526.863525 728.807861,537.236267 
	C727.354126,538.905029 727.422302,540.459839 728.608582,542.188477 
	C737.260132,554.795349 736.808105,568.838318 734.877380,583.047668 
	C734.095276,588.804260 733.101013,594.551575 730.581299,599.899963 
	C726.295227,608.997559 719.357483,614.140442 709.125793,614.300964 
	C703.467712,614.389709 697.804016,614.395264 692.147583,614.251160 
	C685.482788,614.081421 682.861145,611.556274 682.904846,604.594360 
	C682.954956,596.618469 683.577698,588.646545 683.936890,580.672241 
	C684.535522,567.381409 685.118774,554.089905 685.715881,540.799011 
	C686.021851,533.987793 686.343750,527.177307 686.660706,519.880920 
M717.369812,575.700134 
	C717.457397,572.713135 717.675049,569.722595 717.595032,566.740051 
	C717.518616,563.891418 716.775635,561.118835 715.283325,558.675293 
	C713.414490,555.615356 710.378906,554.658569 707.063538,555.249451 
	C703.593567,555.867981 704.355042,558.954834 704.228333,561.319885 
	C703.855225,568.288391 703.626587,575.264648 703.267212,582.234009 
	C703.082825,585.810364 704.918518,586.905090 708.179749,586.748352 
	C713.107300,586.511414 715.424011,583.940796 717.369812,575.700134 
M712.113831,501.261200 
	C707.783020,500.441223 706.468018,502.863892 706.358521,506.600983 
	C706.237061,510.750458 706.025940,514.899048 706.002380,519.048889 
	C705.988892,521.428711 705.146484,524.475525 708.394043,525.384583 
	C711.815491,526.342285 714.593384,524.762512 716.442444,521.828125 
	C718.755859,518.156799 718.875427,514.000244 718.900879,509.807617 
	C718.927124,505.475311 717.457703,502.366608 712.113831,501.261200 
z"/>
<path fill="#000000" opacity="1.000000" stroke="none" 
	d="
M718.370667,410.295044 
	C718.070984,415.748657 717.829407,420.734039 717.492554,425.713013 
	C717.119568,431.225525 718.794983,433.588654 724.367188,434.831909 
	C730.531128,436.207153 736.749573,437.342712 742.899109,438.776611 
	C749.389709,440.290009 752.075745,443.716522 752.319275,450.435699 
	C752.476379,454.767700 752.487549,459.097046 751.168884,463.303711 
	C749.364014,469.061615 746.091309,471.855591 740.161743,471.243652 
	C725.774475,469.758881 711.402771,468.038269 697.088135,465.973389 
	C691.040039,465.100983 686.863403,459.563049 686.758423,452.931519 
	C686.386780,429.459991 687.501709,406.018341 688.399414,382.570740 
	C689.023315,366.274139 689.266907,349.963074 689.703674,333.659088 
	C689.761536,331.501099 689.722290,329.300385 690.137695,327.200500 
	C690.988403,322.899567 693.623596,320.155273 698.183228,320.741943 
	C717.093933,323.175079 724.389221,329.789581 723.134155,346.142517 
	C721.505371,367.366119 719.965088,388.596497 718.370667,410.295044 
z"/>
<path fill="#000000" opacity="1.000000" stroke="none" 
	d="
M659.189392,591.658020 
	C659.009216,587.527832 658.844543,583.866455 658.725464,580.203552 
	C658.585999,575.913391 655.847717,574.617126 652.128723,574.272461 
	C648.322388,573.919800 646.003357,575.515381 645.395325,579.287903 
	C644.337585,585.850464 643.289124,592.417175 642.411011,599.005371 
	C641.385132,606.702576 639.295532,608.866577 633.046326,608.267029 
	C626.258545,607.615784 622.216187,602.708923 623.103210,595.871887 
	C624.193665,587.466797 625.387695,579.072327 626.710815,570.700684 
	C631.121094,542.796021 635.387634,514.865173 640.695679,487.112274 
	C642.948792,475.332275 645.583557,473.379242 657.585144,473.867889 
	C659.571167,473.948761 661.542114,474.534576 663.523926,474.558258 
	C669.113220,474.625153 671.403503,477.910736 672.335449,482.911346 
	C674.442871,494.218842 675.139587,505.684540 676.122131,517.104919 
	C678.363708,543.156738 679.077087,569.283142 679.270813,595.424011 
	C679.288086,597.755737 679.350220,600.097900 679.172363,602.418457 
	C678.449524,611.847473 670.914062,615.534180 662.834167,610.504272 
	C660.411072,608.995850 659.788086,606.692871 659.680359,604.104126 
	C659.514221,600.112061 659.375488,596.118896 659.189392,591.658020 
M650.949036,530.260071 
	C650.409973,534.368774 649.786438,538.468689 649.358215,542.588928 
	C649.006714,545.970581 649.904236,548.605469 653.994568,548.719910 
	C658.068726,548.833862 659.691101,546.594971 659.613586,542.793335 
	C659.437378,534.151489 658.942871,525.528625 657.828552,516.953247 
	C657.587708,515.099487 658.073914,512.847351 655.185791,511.619659 
	C652.678589,517.359009 652.123169,523.441467 650.949036,530.260071 
z"/>
<path fill="#000000" opacity="1.000000" stroke="none" 
	d="
M782.928223,564.320374 
	C783.878113,551.415283 784.744995,538.976196 785.684082,526.542480 
	C786.335083,517.923035 786.951843,509.297272 787.838440,500.700592 
	C788.432007,494.944946 791.475464,492.187531 797.208069,492.762421 
	C807.644165,493.808929 817.891846,496.010773 827.845215,499.401123 
	C831.610352,500.683624 833.375916,503.412567 833.322876,507.408630 
	C833.280884,510.576904 833.274292,513.720520 832.304993,516.797485 
	C831.071106,520.714661 828.746277,522.623352 824.457825,521.722412 
	C820.553284,520.902100 816.619141,520.193665 812.671997,519.613159 
	C809.293152,519.116394 805.873230,518.606445 805.210693,523.611084 
	C804.231934,531.004578 805.235962,533.387268 810.453369,534.285095 
	C813.722473,534.847595 817.057068,535.018433 820.343201,535.496155 
	C824.157837,536.050598 826.322632,538.260681 826.403381,542.202759 
	C826.454285,544.688782 826.481689,547.190002 826.272278,549.663513 
	C825.916260,553.867920 823.489746,556.374573 819.351440,556.976257 
	C817.058167,557.309692 814.704590,557.276489 812.376587,557.314880 
	C804.379028,557.447021 799.859863,564.024963 802.519775,571.775269 
	C803.478577,574.568909 805.804016,574.879089 808.245911,574.470825 
	C812.344971,573.785767 816.415833,572.931519 820.497925,572.145264 
	C825.543762,571.173401 827.610352,572.692322 828.221313,577.826904 
	C829.626648,589.637024 827.069458,593.814636 815.709473,597.430115 
	C807.628174,600.002197 799.476746,602.374573 791.287842,604.580994 
	C784.783447,606.333618 781.683350,604.038147 781.766235,597.219788 
	C781.897583,586.406494 782.482849,575.598755 782.928223,564.320374 
z"/>
<path fill="#000000" opacity="1.000000" stroke="none" 
	d="
M457.285828,500.347748 
	C472.583405,485.698181 492.497284,491.473358 498.488708,512.830505 
	C504.273987,533.452759 504.642151,554.628235 499.180420,575.460999 
	C495.113068,590.975220 480.182007,597.855591 466.905304,591.110413 
	C461.499695,588.364014 457.683319,584.039795 455.433350,578.423401 
	C448.322144,560.672119 447.634827,542.178955 449.253754,523.443481 
	C449.965668,515.204956 452.018799,507.396484 457.285828,500.347748 
M482.815063,560.202148 
	C484.744171,547.910828 484.052429,535.698669 481.255249,523.640686 
	C480.519318,520.468384 479.004669,517.143311 474.755707,517.141846 
	C470.726257,517.140442 469.265442,520.162537 468.668945,523.306763 
	C466.252411,536.044678 466.822510,548.746094 470.000366,561.299438 
	C470.811615,564.504211 472.643585,567.384583 476.307861,567.463806 
	C480.335388,567.551025 481.920349,564.516724 482.815063,560.202148 
z"/>
<path fill="#000000" opacity="1.000000" stroke="none" 
	d="
M393.444702,502.685547 
	C397.714264,499.049164 402.732758,499.450500 407.414612,498.542847 
	C413.531067,497.357086 419.691956,497.444366 425.838379,497.718018 
	C434.429199,498.100525 440.283783,502.807312 442.242462,511.166748 
	C445.463806,524.915344 445.907104,538.289185 435.359161,549.636963 
	C433.381195,551.764954 434.184296,554.037354 435.342377,556.117004 
	C438.743561,562.224365 442.327423,568.230225 445.713837,574.345520 
	C447.240540,577.102478 448.772705,579.923218 449.765564,582.894409 
	C451.546570,588.224426 448.525238,592.247559 442.861511,592.195984 
	C437.566345,592.147766 433.042389,590.226257 430.274384,585.437988 
	C426.692322,579.241455 423.299408,572.935852 419.750854,566.719543 
	C418.892456,565.215698 418.501556,563.174988 415.935211,562.815735 
	C414.655090,566.024231 415.484924,569.257507 415.740570,572.483398 
	C416.042633,576.295166 416.289154,580.116150 416.389282,583.937561 
	C416.468567,586.962402 414.660461,588.566772 411.789734,588.801392 
	C403.349670,589.491333 397.386688,584.277893 396.765259,575.824341 
	C396.253143,568.858093 395.706116,561.894348 395.168701,554.929932 
	C394.004547,539.843201 392.817444,524.758301 391.690735,509.668762 
	C391.516602,507.337250 391.578857,504.977875 393.444702,502.685547 
M420.326050,536.068176 
	C424.879883,532.828674 426.606506,524.087952 423.393555,519.685669 
	C421.200928,516.681458 418.034485,515.889160 414.499268,516.778503 
	C410.585999,517.762878 411.370575,520.946594 411.503143,523.698730 
	C411.614868,526.018982 412.032776,528.322998 412.196045,530.642517 
	C412.627899,536.777466 413.222809,537.261108 420.326050,536.068176 
z"/>
<path fill="#000000" opacity="1.000000" stroke="none" 
	d="
M613.810852,475.659393 
	C617.930237,475.422882 621.588440,474.955811 625.236633,475.023956 
	C630.959106,475.130737 633.066711,477.303925 633.282471,482.954224 
	C633.409485,486.281433 633.395630,489.622803 633.253418,492.949615 
	C632.980103,499.342346 630.314514,501.870026 623.870300,502.072662 
	C615.652100,502.331055 615.832947,502.330261 615.870605,510.639038 
	C615.989990,536.966614 615.968445,563.294800 615.974854,589.622742 
	C615.975220,591.283325 615.809570,592.951050 615.616516,594.603210 
	C614.884277,600.870483 612.751587,603.146667 607.525208,603.325134 
	C600.811035,603.554382 596.947571,600.756226 596.028320,594.800964 
	C595.725525,592.839294 595.767883,590.813660 595.768860,588.817383 
	C595.781189,563.155823 595.856384,537.494263 595.818787,511.832794 
	C595.806580,503.501923 595.478333,503.322418 587.341797,504.179962 
	C582.253418,504.716248 579.878174,502.969391 578.891907,497.958710 
	C578.827759,497.632629 578.777405,497.298859 578.769165,496.967468 
	C578.421753,482.999023 574.676575,477.995483 593.449402,477.242737 
	C600.091736,476.976349 606.713806,476.207977 613.810852,475.659393 
z"/>
<path fill="#000000" opacity="1.000000" stroke="none" 
	d="
M517.190063,486.869019 
	C525.504761,485.652588 533.383972,484.411255 541.289978,483.373474 
	C546.465637,482.694122 548.670288,484.546356 549.365356,489.710815 
	C549.476318,490.535126 549.535767,491.366211 549.632996,492.192505 
	C551.110596,504.750946 548.599548,507.681793 535.897400,508.220154 
	C524.167786,508.717316 522.635925,510.809509 524.900208,522.310120 
	C525.705017,526.397583 527.524841,528.092651 531.761902,527.303345 
	C534.357056,526.819946 537.058472,526.901794 539.712830,526.742310 
	C544.487793,526.455383 546.694092,529.050354 547.304932,533.480591 
	C547.715637,536.459656 547.663757,539.411804 547.390869,542.414734 
	C547.056824,546.091248 545.153137,548.256958 541.759033,549.140625 
	C539.679260,549.682068 537.517029,550.031372 535.372253,550.176514 
	C527.419495,550.714661 526.980835,550.996582 527.373230,559.133911 
	C527.749390,566.936462 528.519470,574.719238 529.035400,582.516052 
	C529.583679,590.800293 526.211609,594.596008 518.736328,594.258301 
	C512.777405,593.989075 510.130554,591.172729 509.753082,584.588074 
	C508.364166,560.359070 507.005493,536.128296 505.609436,511.899689 
	C505.351440,507.422668 504.798187,502.956879 504.688568,498.478394 
	C504.503784,490.932068 505.652039,489.564819 512.868652,487.796112 
	C514.160828,487.479431 515.466553,487.217682 517.190063,486.869019 
z"/>
<path fill="#000000" opacity="1.000000" stroke="none" 
	d="
M765.073364,502.736938 
	C764.161865,513.635132 763.158081,524.056580 762.456970,534.498413 
	C761.532654,548.264465 760.772522,562.042786 760.088623,575.823181 
	C759.760071,582.444214 760.975098,583.366211 767.617981,582.317810 
	C768.603821,582.162292 769.579834,581.928162 770.570251,581.821533 
	C777.483093,581.077271 779.266174,582.621765 779.455872,589.576599 
	C779.501160,591.235962 779.419739,592.903687 779.308044,594.561646 
	C778.618347,604.801147 776.077087,607.726440 766.100037,609.396729 
	C759.873535,610.439087 753.623779,611.380798 747.355774,612.125916 
	C740.999329,612.881592 738.423828,610.730591 738.752625,604.445557 
	C739.863831,583.202087 741.209351,561.970825 742.477417,540.735657 
	C743.200867,528.621582 743.983643,516.510864 744.663513,504.394318 
	C744.886902,500.414703 744.851990,496.444061 745.547302,492.474304 
	C746.725647,485.747131 748.136414,484.228760 753.914001,484.499054 
	C761.090881,484.834839 765.089783,488.036163 765.285950,493.785797 
	C765.382263,496.608398 765.181824,499.441101 765.073364,502.736938 
z"/>
<path fill="#000000" opacity="1.000000" stroke="none" 
	d="
M355.074493,503.846649 
	C360.215057,503.814941 364.840027,503.985748 369.487335,504.560516 
	C377.695465,505.575714 383.411743,509.527924 386.344269,517.355286 
	C389.469147,525.696045 390.342316,534.140991 387.465454,542.720581 
	C385.011292,550.039429 379.446106,554.099243 371.783722,554.327026 
	C370.786377,554.356689 369.787445,554.347961 368.789459,554.338257 
	C359.889801,554.251831 359.889771,554.250610 360.252686,562.887756 
	C360.495941,568.677124 357.963806,570.171753 352.445496,568.319397 
	C342.193359,564.877930 340.342957,556.782959 339.722870,547.480713 
	C339.049713,537.382202 337.849304,527.318359 336.848724,517.242371 
	C335.878326,507.470032 337.312103,505.621277 347.135468,504.389923 
	C349.604034,504.080505 352.104492,504.025665 355.074493,503.846649 
M368.953796,534.222961 
	C370.249786,531.882568 369.933807,529.345154 369.616333,526.901306 
	C369.044617,522.500793 365.088531,520.390991 359.679565,521.182434 
	C354.865570,521.886780 356.952881,525.117615 357.130127,527.681702 
	C357.175995,528.345459 357.221924,529.009277 357.260834,529.673462 
	C357.706177,537.277466 361.601166,539.077515 368.953796,534.222961 
z"/>
<path fill="#000000" opacity="1.000000" stroke="none" 
	d="
M575.132446,513.220459 
	C575.765137,536.825195 576.373535,559.953613 576.965759,583.082581 
	C577.004028,584.577515 577.049072,586.091675 576.867798,587.569519 
	C576.037720,594.339355 573.462891,596.482666 566.604004,596.244080 
	C560.185852,596.020813 556.981934,593.136963 556.740784,586.781372 
	C556.305298,575.306152 556.119202,563.821716 555.806335,552.341736 
	C555.262268,532.377869 554.718628,512.413940 554.137512,492.451080 
	C553.926575,485.203430 556.105896,481.880310 562.085022,480.606323 
	C570.270874,478.862122 574.000977,481.829285 574.251953,490.307129 
	C574.473511,497.788696 573.933838,505.298889 575.132446,513.220459 
z"/>
<path fill="#000000" opacity="1.000000" stroke="none" 
	d="
M491.206970,326.385742 
	C475.793457,326.987579 460.843506,327.770294 445.883484,328.111481 
	C429.744293,328.479553 413.727600,330.074249 397.726685,332.012115 
	C395.943848,332.228027 394.125549,332.720703 392.269592,331.892548 
	C391.900299,329.595581 393.784515,328.706238 395.102997,327.652985 
	C415.896667,311.042694 439.609711,304.473938 465.978943,307.322723 
	C476.121368,308.418488 486.028809,310.593933 495.057281,315.550262 
	C498.096222,317.218536 503.012085,318.547668 502.077148,322.836670 
	C501.114441,327.252991 496.171143,325.983032 492.663666,326.337708 
	C492.333374,326.371124 491.998718,326.361694 491.206970,326.385742 
z"/>
<path fill="#000000" opacity="1.000000" stroke="none" 
	d="
M202.099762,361.646790 
	C207.259949,343.142792 227.823959,336.086334 242.722931,347.378113 
	C244.162430,348.469086 245.513992,349.773346 246.607285,351.206726 
	C250.946014,356.895172 250.038040,359.405823 243.085312,360.707794 
	C230.319168,363.098389 217.760681,366.065399 206.358902,372.643372 
	C205.677353,373.036560 204.826187,373.135803 203.804001,373.448212 
	C200.948151,369.905975 201.628479,365.951904 202.099762,361.646790 
z"/>
</svg>